<?xml version="1.0" encoding="UTF-8"?>
<svg version="1.1" xmlns="http://www.w3.org/2000/svg" width="124" height="166">
<path d="M0 0 C13.79936461 14.55649789 19.03072409 35.05923054 18.5625 54.75390625 C16.82971256 84.75278883 11.3411478 115.66970909 -11.625 137 C-20.33775635 144.31715017 -28.34714704 147.63926974 -39.76953125 147.27734375 C-47.59581214 146.51719882 -53.55515314 143.03660258 -58.625 137 C-62.95564708 129.00015914 -63.77371774 121.27210084 -63.83032227 112.34448242 C-63.84022186 111.3781488 -63.85012146 110.41181519 -63.86032104 109.41619873 C-63.89185152 106.22931347 -63.91666007 103.04241331 -63.94140625 99.85546875 C-63.96198307 97.64300657 -63.98297974 95.43054825 -64.00437927 93.21809387 C-64.0595247 87.40010717 -64.10896718 81.58208544 -64.15722656 75.76403809 C-64.20749657 69.82508228 -64.26315392 63.88617724 -64.31835938 57.94726562 C-64.42584886 46.29822047 -64.52731427 34.6491312 -64.625 23 C-60.9062407 25.42483483 -57.65283565 27.73925391 -54.625 31 C-53.305 27.7 -51.985 24.4 -50.625 21 C-46.625 24 -46.625 24 -45.88362694 25.93929482 C-45.42671327 29.57992239 -45.47179926 33.23296135 -45.46728516 36.89599609 C-45.46220444 37.79402451 -45.45712372 38.69205292 -45.45188904 39.61729431 C-45.44119689 41.56576948 -45.43257219 43.51425685 -45.42576981 45.46274948 C-45.41396841 48.54803609 -45.3945127 51.63318352 -45.37265015 54.71841431 C-45.31107251 63.48996345 -45.2569804 72.26149759 -45.22363281 81.03320312 C-45.20268051 86.40012375 -45.16737433 91.76678922 -45.12287521 97.133564 C-45.10872155 99.17723207 -45.09999421 101.22094526 -45.09682083 103.26465988 C-45.09190862 106.12511632 -45.06874291 108.98489607 -45.04150391 111.84521484 C-45.04451004 112.68697769 -45.04751617 113.52874054 -45.0506134 114.39601135 C-44.98103634 119.3195597 -44.35897275 122.73685868 -41.625 127 C-38.5851352 128.94213584 -36.80246056 129.00645311 -33.1875 128.875 C-25.3525182 126.95061851 -20.18972732 121.39746962 -15.625 115 C-1.20187214 90.83709712 2.54804933 60.46064383 -3.21484375 33.2109375 C-5.78463288 23.63125021 -10.18965785 14.56948873 -18.625 9 C-19.20765625 8.61199219 -19.7903125 8.22398438 -20.390625 7.82421875 C-31.20365883 1.5771929 -43.86880057 2.5539118 -55.625 5 C-58.85810266 6.0266677 -61.69193631 7.30857882 -64.625 9 C-65.635625 9.515625 -66.64625 10.03125 -67.6875 10.5625 C-77.37678887 18.60254821 -81.77243496 29.48503558 -83.375 41.75 C-83.47738102 43.16541761 -83.5614027 44.58231023 -83.625 46 C-83.6765625 46.67933594 -83.728125 47.35867187 -83.78125 48.05859375 C-84.26845517 59.12221115 -81.02804501 69.47780187 -75.625 79 C-74.95103252 80.32965787 -74.28196116 81.66185791 -73.625 83 C-81.07713217 82.7239951 -85.39945369 80.06389829 -91.625 76 C-91.625 79.96 -91.625 83.92 -91.625 88 C-101.33976147 77.93828276 -102.03296191 61.66431998 -101.99072266 48.47900391 C-101.67045671 30.92901792 -95.81958256 14.86723747 -83.625 2 C-60.75588567 -19.33200992 -23.54175399 -21.69060752 0 0 Z " fill="#239EEB" transform="translate(102.625,17)"/>
<path d="M0 0 C1.32 0.33 2.64 0.66 4 1 C3.67 2.98 3.34 4.96 3 7 C3.99 6.34 4.98 5.68 6 5 C6.99 4.67 7.98 4.34 9 4 C9.33 3.01 9.66 2.02 10 1 C12.0625 0.3125 12.0625 0.3125 14 0 C14.17692836 12.7083916 14.34288682 25.41687429 14.49477577 38.12559128 C14.56564723 44.02652262 14.64032087 49.92735515 14.72363281 55.828125 C14.80386883 61.52088309 14.87418397 67.21368461 14.93757248 72.90665436 C14.96352969 75.08044208 14.99308363 77.25418987 15.02626419 79.42787933 C15.0720684 82.46849441 15.10517276 85.50899914 15.13525391 88.54980469 C15.1517952 89.45179596 15.16833649 90.35378723 15.18537903 91.28311157 C15.19104385 92.11319733 15.19670868 92.94328308 15.20254517 93.79852295 C15.2117631 94.51752148 15.22098103 95.23652 15.23047829 95.97730637 C14.96196075 98.33383509 14.16456441 99.95073506 13 102 C13.99 102 14.98 102 16 102 C16 101.01 16 100.02 16 99 C16.99 99 17.98 99 19 99 C19.66 99.66 20.32 100.32 21 101 C21.66 101.33 22.32 101.66 23 102 C22.21625 102.28875 21.4325 102.5775 20.625 102.875 C17.90328368 103.84912254 17.90328368 103.84912254 16 106 C13.6171875 106.4140625 13.6171875 106.4140625 10.875 106.625 C9.50988281 106.73714844 9.50988281 106.73714844 8.1171875 106.8515625 C7.41851562 106.90054688 6.71984375 106.94953125 6 107 C6 106.34 6 105.68 6 105 C5.34 105 4.68 105 4 105 C3.87625 104.319375 3.7525 103.63875 3.625 102.9375 C3.04744929 99.95306175 3.04744929 99.95306175 1.98681641 96.96411133 C0.62855667 92.22950669 0.64573783 87.53325832 0.5859375 82.63671875 C0.56652603 81.62715118 0.54711456 80.61758362 0.52711487 79.5774231 C0.46676009 76.28086757 0.42044939 72.98429205 0.375 69.6875 C0.33707593 67.40909151 0.29874193 65.13068981 0.26000977 62.85229492 C-0.07621527 41.90201624 -0.10915258 20.95225798 0 0 Z " fill="#1D9DEC" transform="translate(41,46)"/>
<path d="M0 0 C4 3 4 3 4.74137306 4.93929482 C5.19828673 8.57992239 5.15320074 12.23296135 5.15771484 15.89599609 C5.16533592 17.24303871 5.16533592 17.24303871 5.17311096 18.61729431 C5.18380311 20.56576948 5.19242781 22.51425685 5.19923019 24.46274948 C5.21103159 27.54803609 5.2304873 30.63318352 5.25234985 33.71841431 C5.31392749 42.48996345 5.3680196 51.26149759 5.40136719 60.03320312 C5.42231949 65.40012375 5.45762567 70.76678922 5.50212479 76.133564 C5.51627845 78.17723207 5.52500579 80.22094526 5.52817917 82.26465988 C5.53309138 85.12511632 5.55625709 87.98489607 5.58349609 90.84521484 C5.57898689 92.10785912 5.57898689 92.10785912 5.5743866 93.39601135 C5.64396366 98.3195597 6.26602725 101.73685868 9 106 C13.10477747 108.62249672 16.3682513 108.00354555 21 107 C23.31764917 106.24337914 25.61632538 105.44052947 27.91796875 104.63671875 C31.28001322 103.6085513 33.84826143 103.42413071 37 105 C37.85056945 108.55692677 38.16909807 110.49270578 37 114 C36.34 114 35.68 114 35 114 C35 114.99 35 115.98 35 117 C34.34 117 33.68 117 33 117 C33 117.66 33 118.32 33 119 C32.01 119 31.02 119 30 119 C30 119.66 30 120.32 30 121 C28.35 121 26.7 121 25 121 C25 121.66 25 122.32 25 123 C24.01 123 23.02 123 22 123 C22 123.66 22 124.32 22 125 C16.92323232 127.53838384 9.04801463 126.65777168 3.75 124.9375 C-2.87110655 121.95800205 -7.6563627 117.61197881 -10.4375 110.875 C-12.77577604 104.31105022 -13.16152762 98.25173704 -13.20532227 91.34448242 C-13.21522186 90.3781488 -13.22512146 89.41181519 -13.23532104 88.41619873 C-13.26685152 85.22931347 -13.29166007 82.04241331 -13.31640625 78.85546875 C-13.33698307 76.64300657 -13.35797974 74.43054825 -13.37937927 72.21809387 C-13.4345247 66.40010717 -13.48396718 60.58208544 -13.53222656 54.76403809 C-13.58249657 48.82508228 -13.63815392 42.88617724 -13.69335938 36.94726562 C-13.80084886 25.29822047 -13.90231427 13.6491312 -14 2 C-10.2812407 4.42483483 -7.02783565 6.73925391 -4 10 C-2.68 6.7 -1.36 3.4 0 0 Z M-11 8 C-11.11656598 30.25872265 -11.05169808 52.5133018 -10.68161011 74.76965332 C-10.64395028 77.08495095 -10.60953283 79.40030365 -10.57839966 81.71569824 C-10.53323357 84.98258462 -10.47543336 88.24900779 -10.4140625 91.515625 C-10.40250626 92.48890747 -10.39095001 93.46218994 -10.37904358 94.46496582 C-10.27138507 99.37779608 -9.854314 103.37985378 -8 108 C-7.63893903 109.66088045 -7.29537827 111.32618981 -7 113 C-6.34 113 -5.68 113 -5 113 C-4.67 113.66 -4.34 114.32 -4 115 C-2.35333797 114.8864371 -0.70763918 114.75882619 0.9375 114.625 C1.85402344 114.55539063 2.77054688 114.48578125 3.71484375 114.4140625 C4.84599609 114.20910156 4.84599609 114.20910156 6 114 C6.33 113.34 6.66 112.68 7 112 C8.64363134 111.27840576 10.31050386 110.60648579 12 110 C10.515 109.505 10.515 109.505 9 109 C8.505 108.01 8.505 108.01 8 107 C7.01 107 6.02 107 5 107 C5 107.99 5 108.98 5 110 C4.01 110 3.02 110 2 110 C2.32582251 109.42665546 2.65164501 108.85331093 2.98734093 108.26259232 C4.06332804 105.85850566 4.23600251 104.40819612 4.20254517 101.79852295 C4.19688034 100.96843719 4.19121552 100.13835144 4.18537903 99.28311157 C4.16883774 98.3811203 4.15229645 97.47912903 4.13525391 96.54980469 C4.12579239 95.59337067 4.11633087 94.63693665 4.10658264 93.65151978 C4.07291564 90.49144327 4.02479696 87.33175996 3.9765625 84.171875 C3.9503943 81.98041816 3.92512738 79.78895038 3.90072632 77.59747314 C3.83408606 71.83026289 3.75519061 66.06328261 3.67376709 60.29626465 C3.59283677 54.41114121 3.52346299 48.52588288 3.453125 42.640625 C3.31341219 31.09358831 3.16075595 19.54676156 3 8 C1.35 8.66 -0.3 9.32 -2 10 C-2 10.66 -2 11.32 -2 12 C-2.99 12.33 -3.98 12.66 -5 13 C-5.99 13.66 -6.98 14.32 -8 15 C-7.67 13.02 -7.34 11.04 -7 9 C-8.32 8.67 -9.64 8.34 -11 8 Z " fill="#239FEC" transform="translate(52,38)"/>
<path d="M0 0 C4 3 4 3 4.74137306 4.93929482 C5.19828673 8.57992239 5.15320074 12.23296135 5.15771484 15.89599609 C5.16533592 17.24303871 5.16533592 17.24303871 5.17311096 18.61729431 C5.18380311 20.56576948 5.19242781 22.51425685 5.19923019 24.46274948 C5.21103159 27.54803609 5.2304873 30.63318352 5.25234985 33.71841431 C5.31392749 42.48996345 5.3680196 51.26149759 5.40136719 60.03320312 C5.42231949 65.40012375 5.45762567 70.76678922 5.50212479 76.133564 C5.51627845 78.17723207 5.52500579 80.22094526 5.52817917 82.26465988 C5.53309138 85.12511632 5.55625709 87.98489607 5.58349609 90.84521484 C5.57898689 92.10785912 5.57898689 92.10785912 5.5743866 93.39601135 C5.64396366 98.3195597 6.26602725 101.73685868 9 106 C13.0874 108.61139444 16.38195818 107.92360836 21 107 C22.33917261 106.69096017 23.67653254 106.37057089 25 106 C25 106.66 25 107.32 25 108 C19.48351346 111.62926746 15.21369499 111.01924246 9 110 C8.67 109.01 8.34 108.02 8 107 C7.01 107 6.02 107 5 107 C5 107.99 5 108.98 5 110 C4.01 110 3.02 110 2 110 C2.07087043 109.38927454 2.14174086 108.77854908 2.21475887 108.14931679 C2.86197711 102.21447801 3.13955023 96.3863377 3.11352539 90.41943359 C3.11367142 89.52064484 3.11381744 88.62185608 3.1139679 87.6958313 C3.11327844 84.76334102 3.10553197 81.8309165 3.09765625 78.8984375 C3.09578863 76.85006749 3.09436635 74.80169703 3.09336853 72.75332642 C3.08957047 67.39075463 3.07976364 62.0282104 3.06866455 56.66564941 C3.05839183 51.18205132 3.05385841 45.69844872 3.04882812 40.21484375 C3.03813868 29.47655047 3.02109521 18.73827753 3 8 C0.46980478 9.15621626 -0.83414451 9.7719487 -2.5 12.0625 C-4.24509481 14.3165808 -5.23423473 14.61851514 -8 15 C-8 13.02 -8 11.04 -8 9 C-8.99 8.67 -9.98 8.34 -11 8 C-11.02332791 18.65863293 -11.04101812 29.31725964 -11.05181217 39.97591305 C-11.05699675 44.92690378 -11.06401245 49.87787685 -11.07543945 54.82885742 C-11.08642757 59.62050611 -11.09231001 64.41213797 -11.09487724 69.20379829 C-11.09670316 71.01791206 -11.10026748 72.83202506 -11.10573006 74.64613152 C-11.13890857 86.1377636 -10.81884091 97.53640134 -10 109 C-13.65544158 103.51683764 -13.1648368 97.72981666 -13.20532227 91.34448242 C-13.21522186 90.3781488 -13.22512146 89.41181519 -13.23532104 88.41619873 C-13.26685152 85.22931347 -13.29166007 82.04241331 -13.31640625 78.85546875 C-13.33698307 76.64300657 -13.35797974 74.43054825 -13.37937927 72.21809387 C-13.4345247 66.40010717 -13.48396718 60.58208544 -13.53222656 54.76403809 C-13.58249657 48.82508228 -13.63815392 42.88617724 -13.69335938 36.94726562 C-13.80084886 25.29822047 -13.90231427 13.6491312 -14 2 C-10.2812407 4.42483483 -7.02783565 6.73925391 -4 10 C-2.68 6.7 -1.36 3.4 0 0 Z " fill="#A7D1E8" transform="translate(52,38)"/>
<path d="M0 0 C0.33 0 0.66 0 1 0 C1.22162329 1.62324086 1.42689803 3.248721 1.625 4.875 C1.74101563 5.77992187 1.85703125 6.68484375 1.9765625 7.6171875 C1.98429688 8.40351562 1.99203125 9.18984375 2 10 C1.34 10.66 0.68 11.32 0 12 C-0.31160685 14.58644714 -0.31160685 14.58644714 -0.265625 17.6015625 C-0.26820312 18.73207031 -0.27078125 19.86257812 -0.2734375 21.02734375 C-0.26570312 22.21457031 -0.25796875 23.40179688 -0.25 24.625 C-0.25773438 25.78902344 -0.26546875 26.95304687 -0.2734375 28.15234375 C-0.259164 34.45409272 0.1253166 39.97423193 2 46 C2.59683594 45.81953125 3.19367187 45.6390625 3.80859375 45.453125 C7.0075717 44.79166075 9.03677941 45.73905507 12 47 C13.875 48.5 13.875 48.5 15 50 C15 50.66 15 51.32 15 52 C16.98 51.505 16.98 51.505 19 51 C18.67 48.69 18.34 46.38 18 44 C19.68156755 46.52235132 21.16468006 49.03586642 22.625 51.6875 C23.07101563 52.49574219 23.51703125 53.30398437 23.9765625 54.13671875 C24.31429688 54.75160156 24.65203125 55.36648437 25 56 C17.54786783 55.7239951 13.22554631 53.06389829 7 49 C7 52.96 7 56.92 7 61 C-1.99356039 51.68524102 -3.38211192 36.51968583 -3.3125 24.1875 C-3.31121094 23.23278809 -3.30992188 22.27807617 -3.30859375 21.29443359 C-3.20776445 13.84944989 -2.25893305 7.12639592 0 0 Z " fill="#68AED7" transform="translate(4,44)"/>
<path d="M0 0 C0.33 0 0.66 0 1 0 C1.02283554 1.10389572 1.04567108 2.20779144 1.06919861 3.34513855 C1.28497724 13.74799937 1.5054403 24.15075176 1.73049068 34.55341625 C1.84604072 39.90153125 1.95993974 45.24967079 2.07006836 50.59790039 C2.17640771 55.75916068 2.28708033 60.9203115 2.40075874 66.08141518 C2.44336877 68.05054763 2.48441695 70.01971451 2.5238781 71.98891258 C2.57941206 74.74686621 2.64049624 77.50464518 2.70288086 80.26245117 C2.71798706 81.07669052 2.73309326 81.89092987 2.74865723 82.72984314 C2.61305609 90.02165163 2.61305609 90.02165163 6 96 C5.625 98.125 5.625 98.125 5 100 C5.66 100 6.32 100 7 100 C7.33 101.32 7.66 102.64 8 104 C7.01 104 6.02 104 5 104 C1.46461868 99.77123233 1.26152054 95.16775915 0.82470703 89.88964844 C0.74485628 89.00679043 0.66500553 88.12393242 0.58273506 87.21432114 C-0.1833305 78.06163158 -0.25484971 68.94380722 -0.1953125 59.765625 C-0.1915665 58.02301194 -0.18872708 56.28039672 -0.18673706 54.53778076 C-0.17922518 50.02689441 -0.15968938 45.51614396 -0.1373291 41.00531006 C-0.11659679 36.37204831 -0.10767779 31.73876385 -0.09765625 27.10546875 C-0.07642707 18.0702539 -0.04244877 9.0351384 0 0 Z " fill="#2E97D8" transform="translate(40,51)"/>
<path d="M0 0 C3.7187593 2.42483483 6.97216435 4.73925391 10 8 C10.66 7.34 11.32 6.68 12 6 C12 7.32 12 8.64 12 10 C9.8614515 12.1385485 8.86724686 12.42655063 6 13 C6 11.02 6 9.04 6 7 C5.01 6.67 4.02 6.34 3 6 C2.97667209 16.65863293 2.95898188 27.31725964 2.94818783 37.97591305 C2.94300325 42.92690378 2.93598755 47.87787685 2.92456055 52.82885742 C2.91357243 57.62050611 2.90768999 62.41213797 2.90512276 67.20379829 C2.90329684 69.01791206 2.89973252 70.83202506 2.89426994 72.64613152 C2.86109143 84.1377636 3.18115909 95.53640134 4 107 C0.34455842 101.51683764 0.8351632 95.72981666 0.79467773 89.34448242 C0.78477814 88.3781488 0.77487854 87.41181519 0.76467896 86.41619873 C0.73314848 83.22931347 0.70833993 80.04241331 0.68359375 76.85546875 C0.66301693 74.64300657 0.64202026 72.43054825 0.62062073 70.21809387 C0.5654753 64.40010717 0.51603282 58.58208544 0.46777344 52.76403809 C0.41750343 46.82508228 0.36184608 40.88617724 0.30664062 34.94726562 C0.19915114 23.29822047 0.09768573 11.6491312 0 0 Z " fill="#91B9CF" transform="translate(38,40)"/>
<path d="M0 0 C1.98 0 3.96 0 6 0 C3.79854792 1.69342468 1.69554077 3.16606867 -0.75 4.5 C-6.94947814 8.56445378 -11.55801853 16.1350419 -14 23 C-14.33 23 -14.66 23 -15 23 C-15 21.02 -15 19.04 -15 17 C-14.34 17 -13.68 17 -13 17 C-12.53477707 12.20691658 -12.53477707 12.20691658 -14.5 8.0625 C-14.995 7.711875 -15.49 7.36125 -16 7 C-15.67 6.01 -15.34 5.02 -15 4 C-14.34 4 -13.68 4 -13 4 C-13 4.66 -13 5.32 -13 6 C-9.66462511 4.88820837 -8.36292656 3.52588702 -6 1 C-6.33 2.32 -6.66 3.64 -7 5 C-6.01 5 -5.02 5 -4 5 C-4 4.01 -4 3.02 -4 2 C-2.68 2 -1.36 2 0 2 C0 1.34 0 0.68 0 0 Z " fill="#2E9FE7" transform="translate(36,23)"/>
<path d="M0 0 C0.66 0 1.32 0 2 0 C1.855625 1.12277344 1.71125 2.24554688 1.5625 3.40234375 C-0.1697298 17.17549539 0.19754266 28.40474563 3 42 C1.125 41.4375 1.125 41.4375 -1 40 C-3.9741891 33.47330724 -3.07336976 26.45011158 -2.75 19.4375 C-2.71003906 18.23158203 -2.67007812 17.02566406 -2.62890625 15.78320312 C-2.39686993 10.10458461 -1.9943431 5.36695202 0 0 Z " fill="#63B0DD" transform="translate(19,46)"/>
<path d="M0 0 C0 0.33 0 0.66 0 1 C-0.59167969 1.10957031 -1.18335937 1.21914062 -1.79296875 1.33203125 C-6.41345763 2.25914403 -10.0876779 3.22351335 -14 6 C-13.67 7.32 -13.34 8.64 -13 10 C-16.9813783 11.3271261 -20.85045227 11.06915913 -25 11 C-19.6868774 4.80135697 -8.37831683 -2.79277228 0 0 Z " fill="#41A3E0" transform="translate(49,5)"/>
<path d="M0 0 C0.66 0.33 1.32 0.66 2 1 C0.68 2.65 -0.64 4.3 -2 6 C-1.34 6 -0.68 6 0 6 C-0.33 6.99 -0.66 7.98 -1 9 C-1 8.34 -1 7.68 -1 7 C-1.99 7 -2.98 7 -4 7 C-3.938125 8.175625 -3.938125 8.175625 -3.875 9.375 C-4 12 -4 12 -6 14 C-7.34294481 15.65893182 -8.67744688 17.32476605 -10 19 C-10 18.34 -10 17.68 -10 17 C-10.66 17 -11.32 17 -12 17 C-12 17.99 -12 18.98 -12 20 C-12.66 20 -13.32 20 -14 20 C-12.58317163 15.97591531 -10.65214232 12.86583081 -8.125 9.4375 C-7.44695313 8.50808594 -6.76890625 7.57867187 -6.0703125 6.62109375 C-4.17792135 4.22525515 -2.20772419 2.10377305 0 0 Z " fill="#6AB2DC" transform="translate(22,16)"/>
<path d="M0 0 C0.33 0 0.66 0 1 0 C0.88545196 2.87575868 0.7587153 5.75012112 0.625 8.625 C0.57859375 9.83736328 0.57859375 9.83736328 0.53125 11.07421875 C0.3047054 15.71838314 -0.2592668 19.62693856 -2 24 C-1.34 24.33 -0.68 24.66 0 25 C-0.78375 25.7425 -1.5675 26.485 -2.375 27.25 C-4.56504531 29.54433318 -5.82731386 31.12158858 -7 34 C-8.34414243 29.9675727 -7.21480953 28.27337865 -5.75 24.3125 C-2.90954992 16.34442005 -1.34697001 8.3336925 0 0 Z " fill="#51ABE2" transform="translate(101,89)"/>
<path d="M0 0 C1.17130773 2.34261547 2.29829022 4.7102148 3.3125 7.125 C4.75704905 10.08464083 4.75704905 10.08464083 7.25 11.4375 C11.96048374 12.40100804 16.43033838 11.27950525 21 10 C21 10.66 21 11.32 21 12 C15.48351346 15.62926746 11.21369499 15.01924246 5 14 C4.67 13.01 4.34 12.02 4 11 C3.01 11 2.02 11 1 11 C1 11.99 1 12.98 1 14 C0.01 14 -0.98 14 -2 14 C-1.34 9.38 -0.68 4.76 0 0 Z " fill="#69B3E2" transform="translate(56,134)"/>
<path d="M0 0 C1.97558594 1.05786133 1.97558594 1.05786133 4 3 C4.45410156 6.1862793 4.45410156 6.1862793 4.390625 10.07421875 C4.38496521 10.7580513 4.37930542 11.44188385 4.37347412 12.1464386 C4.35110816 14.32750899 4.30091765 16.50692753 4.25 18.6875 C4.229935 20.16729395 4.21168422 21.6471137 4.1953125 23.12695312 C4.15124474 26.7518376 4.08221822 30.37575756 4 34 C3.67 34 3.34 34 3 34 C3 25.42 3 16.84 3 8 C1.35 8.66 -0.3 9.32 -2 10 C-1.125 2.25 -1.125 2.25 0 0 Z " fill="#3298D1" transform="translate(52,38)"/>
<path d="M0 0 C0.99 0.33 1.98 0.66 3 1 C4.40664926 1.14492123 5.8181133 1.24628931 7.23046875 1.31640625 C8.43413086 1.37924805 8.43413086 1.37924805 9.66210938 1.44335938 C10.49548828 1.48267578 11.32886719 1.52199219 12.1875 1.5625 C13.03248047 1.60568359 13.87746094 1.64886719 14.74804688 1.69335938 C16.83184433 1.79931518 18.91590103 1.9001502 21 2 C21 2.33 21 2.66 21 3 C20.3294458 3.08564209 19.6588916 3.17128418 18.96801758 3.25952148 C15.91594286 3.6503665 12.86422146 4.04390665 9.8125 4.4375 C8.75740234 4.57220703 7.70230469 4.70691406 6.61523438 4.84570312 C5.08286133 5.04389648 5.08286133 5.04389648 3.51953125 5.24609375 C2.11344604 5.42676392 2.11344604 5.42676392 0.67895508 5.61108398 C-1.90454734 5.98614271 -4.44568678 6.46320936 -7 7 C-5.65117186 2.95351557 -3.65173931 2.04497401 0 0 Z " fill="#60ADDB" transform="translate(49,16)"/>
<path d="M0 0 C1.68156755 2.52235132 3.16468006 5.03586642 4.625 7.6875 C5.29402344 8.89986328 5.29402344 8.89986328 5.9765625 10.13671875 C6.31429688 10.75160156 6.65203125 11.36648437 7 12 C1.00708997 11.58669586 -2.25036599 10.68096635 -7 7 C-6.67 6.01 -6.34 5.02 -6 4 C-5.34 4 -4.68 4 -4 4 C-3.67 5.32 -3.34 6.64 -3 8 C-1.68 7.67 -0.36 7.34 1 7 C0.67 4.69 0.34 2.38 0 0 Z " fill="#66AFDA" transform="translate(22,88)"/>
<path d="M0 0 C3.74281699 2.38179263 6.97727468 4.74475735 10 8 C10.66 7.34 11.32 6.68 12 6 C12 7.32 12 8.64 12 10 C9.8614515 12.1385485 8.86724686 12.42655063 6 13 C6 11.02 6 9.04 6 7 C5.01 6.67 4.02 6.34 3 6 C3 7.65 3 9.3 3 11 C2.67 11 2.34 11 2 11 C0.57741188 7.17679443 -0.24042276 4.08718695 0 0 Z " fill="#7EB6D6" transform="translate(38,40)"/>
<path d="M0 0 C0.99 0 1.98 0 3 0 C3.33 0.99 3.66 1.98 4 3 C2.68 2.67 1.36 2.34 0 2 C0 5.96 0 9.92 0 14 C-2.91227269 10.71195019 -4.49701212 8.40114397 -5 4 C-4.34 4 -3.68 4 -3 4 C-2.525625 3.34 -2.05125 2.68 -1.5625 2 C-1.046875 1.34 -0.53125 0.68 0 0 Z " fill="#89B9D5" transform="translate(11,91)"/>
<path d="M0 0 C0 4.10292897 -1.62801099 5.1527059 -4.375 8.125 C-5.18710938 9.01445312 -5.99921875 9.90390625 -6.8359375 10.8203125 C-9 13 -9 13 -11 14 C-11 12.68 -11 11.36 -11 10 C-10.01 10 -9.02 10 -8 10 C-8.33 9.01 -8.66 8.02 -9 7 C-8.34 6.34 -7.68 5.68 -7 5 C-6.01 5 -5.02 5 -4 5 C-4 4.01 -4 3.02 -4 2 C-2.68 1.34 -1.36 0.68 0 0 Z " fill="#5DAFE4" transform="translate(101,140)"/>
<path d="M0 0 C0.66 0 1.32 0 2 0 C2.33 0.99 2.66 1.98 3 3 C1.27728773 4.15551453 -0.45346917 5.29904119 -2.1875 6.4375 C-3.15042969 7.07558594 -4.11335938 7.71367187 -5.10546875 8.37109375 C-7.84977757 9.91546187 -9.90418343 10.59816641 -13 11 C-13 10.34 -13 9.68 -13 9 C-12.01 9 -11.02 9 -10 9 C-10 8.34 -10 7.68 -10 7 C-8.35 7 -6.7 7 -5 7 C-5.33 6.01 -5.66 5.02 -6 4 C-4.68 4.33 -3.36 4.66 -2 5 C-2 4.34 -2 3.68 -2 3 C-1.34 3 -0.68 3 0 3 C0 2.01 0 1.02 0 0 Z " fill="#69B4E3" transform="translate(87,152)"/>
<path d="M0 0 C0.66 0 1.32 0 2 0 C1.71949194 2.81403301 1.42618696 5.62567253 1.125 8.4375 C1.04636719 9.23994141 0.96773437 10.04238281 0.88671875 10.86914062 C0.66154237 12.92170994 0.33777413 14.96293009 0 17 C-0.66 17.33 -1.32 17.66 -2 18 C-2.3690205 5.33029613 -2.3690205 5.33029613 0 0 Z " fill="#77B5D9" transform="translate(19,46)"/>
<path d="M0 0 C1 3 1 3 0 6 C-3.10462326 9.62206046 -5.16592748 11.58565093 -10 12 C-9.61328125 11.55269531 -9.2265625 11.10539063 -8.828125 10.64453125 C-5.81609925 7.1478974 -2.85678969 3.62592537 0 0 Z " fill="#62B0E2" transform="translate(87,132)"/>
<path d="M0 0 C1.93681161 -0.08107583 3.8745934 -0.13922475 5.8125 -0.1875 C6.89144531 -0.22230469 7.97039063 -0.25710937 9.08203125 -0.29296875 C12 0 12 0 13.88671875 1.51171875 C14.25410156 2.00285156 14.62148437 2.49398437 15 3 C13.25034642 3.05429959 11.50020213 3.09292823 9.75 3.125 C8.77546875 3.14820313 7.8009375 3.17140625 6.796875 3.1953125 C3.9803502 2.99862781 2.39050964 2.44568916 0 1 C0 0.67 0 0.34 0 0 Z " fill="#249AE5" transform="translate(52,160)"/>
<path d="M0 0 C5.59559391 1.39889848 9.70295853 4.25917455 14 8 C14 8.33 14 8.66 14 9 C12.35 9 10.7 9 9 9 C8.67 7.68 8.34 6.36 8 5 C6.35 4.67 4.7 4.34 3 4 C3 3.34 3 2.68 3 2 C1.68 1.67 0.36 1.34 -1 1 C-0.67 0.67 -0.34 0.34 0 0 Z " fill="#6EB2DE" transform="translate(86,7)"/>
<path d="M0 0 C0.66 0 1.32 0 2 0 C1.37494641 3.13931408 0.30139285 5.38450181 -1.4375 8.0625 C-1.86933594 8.73410156 -2.30117188 9.40570313 -2.74609375 10.09765625 C-3.82548599 11.73523887 -4.91205706 13.3680856 -6 15 C-6 13.02 -6 11.04 -6 9 C-5.34 9 -4.68 9 -4 9 C-4 7.02 -4 5.04 -4 3 C-2.68 2.67 -1.36 2.34 0 2 C0 1.34 0 0.68 0 0 Z " fill="#73B6E0" transform="translate(27,31)"/>
<path d="M0 0 C1.56393356 3.97376829 0.36145292 6.81377903 -0.9375 10.75 C-1.31777344 11.92046875 -1.69804688 13.0909375 -2.08984375 14.296875 C-2.39019531 15.18890625 -2.69054687 16.0809375 -3 17 C-5 14 -5 14 -5 12 C-4.34 12 -3.68 12 -3 12 C-3.33 9.69 -3.66 7.38 -4 5 C-3.34 5 -2.68 5 -2 5 C-1.34 3.35 -0.68 1.7 0 0 Z " fill="#6BB5E3" transform="translate(116,103)"/>
<path d="M0 0 C1.95216435 3.90432869 2.50639991 6.72213252 3 11 C2.34 11 1.68 11 1 11 C1 11.99 1 12.98 1 14 C0.01 14 -0.98 14 -2 14 C-1.34 9.38 -0.68 4.76 0 0 Z " fill="#4AA6DF" transform="translate(56,134)"/>
<path d="M0 0 C0.33 0 0.66 0 1 0 C0.91329863 2.95980532 0.80646977 5.91646869 0.6875 8.875 C0.66494141 9.71675781 0.64238281 10.55851562 0.61914062 11.42578125 C0.5659668 12.63427734 0.5659668 12.63427734 0.51171875 13.8671875 C0.48553467 14.61081543 0.45935059 15.35444336 0.43237305 16.12060547 C0 18 0 18 -3 20 C-2.22602467 13.29221378 -1.14231412 6.65425699 0 0 Z " fill="#7BBAE3" transform="translate(101,89)"/>
<path d="M0 0 C0.33 0 0.66 0 1 0 C1 1.65 1 3.3 1 5 C1.66 5.33 2.32 5.66 3 6 C1.515 12.435 1.515 12.435 0 19 C-0.33 19 -0.66 19 -1 19 C-0.67 12.73 -0.34 6.46 0 0 Z " fill="#54AEE4" transform="translate(103,69)"/>
<path d="M0 0 C0 0.33 0 0.66 0 1 C-0.59167969 1.10957031 -1.18335937 1.21914062 -1.79296875 1.33203125 C-5.53519766 2.08291894 -8.51004904 2.70602942 -11.8125 4.6875 C-14 6 -14 6 -16.13671875 5.58203125 C-16.75160156 5.38996094 -17.36648437 5.19789062 -18 5 C-5.333001 -1.777667 -5.333001 -1.777667 0 0 Z " fill="#90C0DD" transform="translate(49,5)"/>
<path d="M0 0 C1.485 0.99 1.485 0.99 3 2 C2.67 3.32 2.34 4.64 2 6 C2.66 6 3.32 6 4 6 C4.33 7.32 4.66 8.64 5 10 C4.01 10 3.02 10 2 10 C0.25 7.8125 0.25 7.8125 -1 5 C-0.6875 2.1875 -0.6875 2.1875 0 0 Z " fill="#57AAD9" transform="translate(43,145)"/>
<path d="M0 0 C0.36923077 5.41538462 0.36923077 5.41538462 -1.5 8.375 C-1.995 8.91125 -2.49 9.4475 -3 10 C-3.66 9.67 -4.32 9.34 -5 9 C-5.25 6.1875 -5.25 6.1875 -5 3 C-1.9 0 -1.9 0 0 0 Z " fill="#2099E4" transform="translate(117,97)"/>
<path d="M0 0 C0 2.64 0 5.28 0 8 C-0.99 7.67 -1.98 7.34 -3 7 C-4.1875 4.4375 -4.1875 4.4375 -5 2 C-2 0 -2 0 0 0 Z " fill="#239BE2" transform="translate(55,46)"/>
<path d="M0 0 C2 1.25 2 1.25 4 3 C4 4.32 4 5.64 4 7 C2.02 7.33 0.04 7.66 -2 8 C-1.34 5.36 -0.68 2.72 0 0 Z " fill="#7EB4D6" transform="translate(52,38)"/>
<path d="M0 0 C0.66 0.33 1.32 0.66 2 1 C0.84826645 3.46800047 -0.04783565 5.04783565 -2 7 C-2 6.34 -2 5.68 -2 5 C-2.66 5 -3.32 5 -4 5 C-4 5.99 -4 6.98 -4 8 C-4.66 8 -5.32 8 -6 8 C-4.125 3.25 -4.125 3.25 -3 1 C-2.01 0.67 -1.02 0.34 0 0 Z " fill="#55ABDF" transform="translate(14,28)"/>
<path d="M0 0 C2 0.3125 2 0.3125 4 1 C4.33 1.66 4.66 2.32 5 3 C4.67 3.99 4.34 4.98 4 6 C4.99 6 5.98 6 7 6 C6.34 7.32 5.68 8.64 5 10 C3.02 7.03 1.04 4.06 -1 1 C-0.67 0.67 -0.34 0.34 0 0 Z " fill="#5AADE1" transform="translate(89,27)"/>
<path d="M0 0 C3.24208567 0.35049575 4.61527704 0.56221181 6.8125 3.0625 C7.204375 3.701875 7.59625 4.34125 8 5 C7.01 5 6.02 5 5 5 C4.67 4.01 4.34 3.02 4 2 C3.01 2 2.02 2 1 2 C0.67 2.66 0.34 3.32 0 4 C0 2.68 0 1.36 0 0 Z M-1 4 C-0.34 4.66 0.32 5.32 1 6 C0.01 6.495 0.01 6.495 -1 7 C-1 6.01 -1 5.02 -1 4 Z " fill="#49A8E4" transform="translate(97,16)"/>
<path d="M0 0 C0.33 0 0.66 0 1 0 C1.33 3.3 1.66 6.6 2 10 C0.02 10.99 0.02 10.99 -2 12 C-1.85831863 10.56208484 -1.71148957 9.1246763 -1.5625 7.6875 C-1.48128906 6.88699219 -1.40007812 6.08648437 -1.31640625 5.26171875 C-1 3 -1 3 0 0 Z " fill="#6CB3DB" transform="translate(4,44)"/>
<path d="M0 0 C2.45823172 3.68734758 3.01242616 6.69699971 4 11 C3.01 10.34 2.02 9.68 1 9 C0.01 9.495 0.01 9.495 -1 10 C-1.66 9.34 -2.32 8.68 -3 8 C-2.67 7.34 -2.34 6.68 -2 6 C-1.34 6 -0.68 6 0 6 C0 4.02 0 2.04 0 0 Z " fill="#65B6E7" transform="translate(114,36)"/>
<path d="M0 0 C4 4.875 4 4.875 4 6 C-3.75 5.25 -3.75 5.25 -6 3 C-3.03 3.495 -3.03 3.495 0 4 C0 2.68 0 1.36 0 0 Z " fill="#A9CBE0" transform="translate(25,94)"/>
<path d="M0 0 C0.625 1.875 0.625 1.875 1 4 C-1.1385485 6.1385485 -2.13275314 6.42655063 -5 7 C-4.67 5.02 -4.34 3.04 -4 1 C-3.01 1.33 -2.02 1.66 -1 2 C-0.67 1.34 -0.34 0.68 0 0 Z " fill="#65AFE2" transform="translate(49,46)"/>
<path d="M0 0 C1.98 0 3.96 0 6 0 C2.87567603 2.52349243 -0.38060496 4.27256146 -4 6 C-4 4.68 -4 3.36 -4 2 C-2.68 2 -1.36 2 0 2 C0 1.34 0 0.68 0 0 Z " fill="#76B6DF" transform="translate(36,23)"/>
<path d="M0 0 C0.33 0.66 0.66 1.32 1 2 C0.22265625 3.9453125 0.22265625 3.9453125 -0.9375 6.125 C-1.31777344 6.84945312 -1.69804688 7.57390625 -2.08984375 8.3203125 C-2.39019531 8.87460938 -2.69054687 9.42890625 -3 10 C-3.97591583 6.61682513 -3.85856655 4.4342662 -3 1 C-2.01 0.67 -1.02 0.34 0 0 Z " fill="#67B3E4" transform="translate(111,121)"/>
<path d="M0 0 C2.11635213 2.57642867 3.67339287 4.62505968 4 8 C3.01 9.485 3.01 9.485 2 11 C0.80712589 7.12315913 0 4.08378077 0 0 Z " fill="#68B5E4" transform="translate(110,28)"/>
<path d="M0 0 C0.99 0.33 1.98 0.66 3 1 C3 2.32 3 3.64 3 5 C3.99 5.33 4.98 5.66 6 6 C5.67 6.99 5.34 7.98 5 9 C4.34 9 3.68 9 3 9 C2.01 6.03 1.02 3.06 0 0 Z " fill="#64B4E3" transform="translate(96,39)"/>
<path d="M0 0 C2.52588702 2.36292656 3.88820837 3.66462511 5 7 C3.68 7.33 2.36 7.66 1 8 C0 2.25 0 2.25 0 0 Z " fill="#61B2E3" transform="translate(105,21)"/>
<path d="M0 0 C0.6875 1.625 0.6875 1.625 1 4 C-0.4375 7.25 -0.4375 7.25 -2 10 C-2.66 10 -3.32 10 -4 10 C-2.8905928 6.51329166 -1.73662334 3.22515763 0 0 Z " fill="#7EBEE6" transform="translate(92,122)"/>
<path d="M0 0 C1.45947705 0.06006078 2.91779272 0.1488689 4.375 0.25 C5.59316406 0.31960937 5.59316406 0.31960937 6.8359375 0.390625 C9 1 9 1 10.2890625 3.046875 C10.64097656 4.01367188 10.64097656 4.01367188 11 5 C10.29875 4.71125 9.5975 4.4225 8.875 4.125 C5.94547497 2.97866412 2.99078347 1.97374346 0 1 C0 0.67 0 0.34 0 0 Z " fill="#8ABDDD" transform="translate(73,20)"/>
<path d="M0 0 C2.31 0 4.62 0 7 0 C7.33 0.99 7.66 1.98 8 3 C5.6568787 2.74438677 3.32156597 2.40729228 1 2 C0.67 1.34 0.34 0.68 0 0 Z " fill="#64B1E6" transform="translate(52,160)"/>
</svg>
