<?xml version="1.0" encoding="UTF-8"?>
<svg version="1.1" xmlns="http://www.w3.org/2000/svg" width="466" height="174">
<path d="M0 0 C4.002247 -0.31390173 6.38328737 -0.34116018 9.9375 1.625 C12.54438019 4.62686204 12.17437155 6.14269005 12 10 C13.10794922 10.31130859 13.10794922 10.31130859 14.23828125 10.62890625 C27.72297803 14.72400476 40.20886489 22.29884962 47.296875 34.8828125 C49.38546428 38.84109757 51.23592731 42.88837991 53 47 C53.53947266 48.22009766 53.53947266 48.22009766 54.08984375 49.46484375 C63.49038833 73.83142945 58.13552351 108.27104749 48.4609375 131.75390625 C41.05948198 148.19938631 31.30040593 164.00721494 13.625 170.9375 C5.05980844 173.37388841 -3.95638686 172.81449695 -12 169 C-17.47261564 165.76618167 -20.80931874 160.1788668 -22.53500938 154.12230778 C-23.91753406 148.32068301 -24.3044585 142.84115129 -24.31884766 136.89038086 C-24.32889328 135.92346313 -24.3389389 134.95654541 -24.34928894 133.96032715 C-24.37994051 130.79517153 -24.39710568 127.63009978 -24.4140625 124.46484375 C-24.43278866 122.25809517 -24.45236314 120.05135364 -24.4727478 117.84461975 C-24.52392196 112.05958222 -24.56362627 106.27452151 -24.60089111 100.48937988 C-24.64102327 94.57684668 -24.69207348 88.66440866 -24.7421875 82.75195312 C-24.83877245 71.16803576 -24.92323274 59.58406447 -25 48 C-20.73384496 50.04066983 -18.26601476 52.58553002 -15 56 C-13.68 52.7 -12.36 49.4 -11 46 C-7 49 -7 49 -6.25862694 50.93929482 C-5.80171327 54.57992239 -5.84679926 58.23296135 -5.84228516 61.89599609 C-5.83720444 62.79402451 -5.83212372 63.69205292 -5.82688904 64.61729431 C-5.81619689 66.56576948 -5.80757219 68.51425685 -5.80076981 70.46274948 C-5.78896841 73.54803609 -5.7695127 76.63318352 -5.74765015 79.71841431 C-5.68607251 88.48996345 -5.6319804 97.26149759 -5.59863281 106.03320312 C-5.57768051 111.40012375 -5.54237433 116.76678922 -5.49787521 122.133564 C-5.48372155 124.17723207 -5.47499421 126.22094526 -5.47182083 128.26465988 C-5.46690862 131.12511632 -5.44374291 133.98489607 -5.41650391 136.84521484 C-5.41951004 137.68697769 -5.42251617 138.52874054 -5.4256134 139.39601135 C-5.35603634 144.3195597 -4.73397275 147.73685868 -2 152 C1.0398648 153.94213584 2.82253944 154.00645311 6.4375 153.875 C14.2724818 151.95061851 19.43527268 146.39746962 24 140 C38.316173 116.01627738 42.71550462 84.78109461 36.22265625 57.765625 C33.12242246 47.49360576 28.4951724 38.73689715 19.11328125 33.12109375 C18.41589844 32.75113281 17.71851562 32.38117187 17 32 C16.39542969 31.64035156 15.79085937 31.28070312 15.16796875 30.91015625 C5.93141942 27.03246977 -9.41505575 27.52586104 -18.73828125 30.9765625 C-19.48464844 31.31429688 -20.23101562 31.65203125 -21 32 C-21.83917969 32.37898438 -22.67835937 32.75796875 -23.54296875 33.1484375 C-32.67817697 37.93025602 -38.09760558 45.53891613 -41.4375 55.1875 C-46.61878172 74.60003551 -42.98312493 90.55602484 -34 108 C-40.97665869 107.35702404 -44.98403688 105.66597753 -51 102 C-51.33 105.63 -51.66 109.26 -52 113 C-55.12230807 109.87769193 -56.03012032 107.93892856 -57.5625 103.875 C-57.97628906 102.79992187 -58.39007813 101.72484375 -58.81640625 100.6171875 C-65.18254258 81.16160255 -63.33841308 60.17495553 -54.875 41.6875 C-48.99441211 30.67863823 -40.23425699 21.6171285 -29 16 C-29.061875 14.741875 -29.12375 13.48375 -29.1875 12.1875 C-29.17801584 9.51296599 -29.16436153 8.28547002 -27.8125 5.9375 C-25.26271335 4.61864484 -23.68253902 5.2024884 -21 6 C-20.505 8.97 -20.505 8.97 -20 12 C-7.625 10.515 -7.625 10.515 5 9 C3.35 6.69 1.7 4.38 0 2 C0 1.34 0 0.68 0 0 Z " fill="#1E9EEB" transform="translate(97,0)"/>
<path d="M0 0 C4.002247 -0.31390173 6.38328737 -0.34116018 9.9375 1.625 C12.54438019 4.62686204 12.17437155 6.14269005 12 10 C13.10794922 10.31130859 13.10794922 10.31130859 14.23828125 10.62890625 C26.71327678 14.41737376 36.66854982 20.85878275 45 31 C46.27734375 33.8046875 46.27734375 33.8046875 47 36 C44.125 35.3125 44.125 35.3125 41 34 C39.6875 31.5625 39.6875 31.5625 39 29 C38.505 27.515 38.505 27.515 38 26 C37.01 26 36.02 26 35 26 C34.7525 26.9075 34.505 27.815 34.25 28.75 C32.94010978 32.15571458 31.66019932 33.58919436 29 36 C28.34 36.99 27.68 37.98 27 39 C26.49210937 38.60167969 25.98421875 38.20335937 25.4609375 37.79296875 C14.03723511 29.00056859 3.01061584 28.06963446 -11 29 C-14.60645766 29.55848032 -17.68025032 30.49779894 -21 32 C-21.83917969 32.37898438 -22.67835937 32.75796875 -23.54296875 33.1484375 C-32.67817697 37.93025602 -38.09760558 45.53891613 -41.4375 55.1875 C-46.61878172 74.60003551 -42.98312493 90.55602484 -34 108 C-40.97665869 107.35702404 -44.98403688 105.66597753 -51 102 C-51.33 105.63 -51.66 109.26 -52 113 C-55.12230807 109.87769193 -56.03012032 107.93892856 -57.5625 103.875 C-57.97628906 102.79992187 -58.39007813 101.72484375 -58.81640625 100.6171875 C-65.18254258 81.16160255 -63.33841308 60.17495553 -54.875 41.6875 C-48.99441211 30.67863823 -40.23425699 21.6171285 -29 16 C-29.061875 14.741875 -29.12375 13.48375 -29.1875 12.1875 C-29.17801584 9.51296599 -29.16436153 8.28547002 -27.8125 5.9375 C-25.26271335 4.61864484 -23.68253902 5.2024884 -21 6 C-20.505 8.97 -20.505 8.97 -20 12 C-7.625 10.515 -7.625 10.515 5 9 C3.35 6.69 1.7 4.38 0 2 C0 1.34 0 0.68 0 0 Z " fill="#219EEB" transform="translate(97,0)"/>
<path d="M0 0 C6.49903133 0.05117348 13.59340705 2.42170353 19.375 5.3125 C18.06275452 9.24923644 16.45589673 11.53969294 13.375 14.3125 C12.323125 13.8175 11.27125 13.3225 10.1875 12.8125 C3.52976411 10.36151051 -3.74617604 10.03532626 -10.5078125 12.26171875 C-18.31315544 15.95469444 -24.0088911 21.44060951 -27.625 29.3125 C-30.5106944 38.54411061 -29.86416701 47.00408949 -25.43359375 55.6328125 C-21.22640652 61.9376002 -14.74743555 65.93835482 -7.625 68.3125 C-6.28974283 68.39223476 -4.95087917 68.42021338 -3.61328125 68.41015625 C-2.85595703 68.40693359 -2.09863281 68.40371094 -1.31835938 68.40039062 C-0.53267578 68.39201172 0.25300781 68.38363281 1.0625 68.375 C1.85978516 68.37048828 2.65707031 68.36597656 3.47851562 68.36132812 C5.44404257 68.3495585 7.40953085 68.33162348 9.375 68.3125 C9.375 63.6925 9.375 59.0725 9.375 54.3125 C5.745 54.3125 2.115 54.3125 -1.625 54.3125 C-1.625 51.3425 -1.625 48.3725 -1.625 45.3125 C5.305 45.3125 12.235 45.3125 19.375 45.3125 C19.375 54.8825 19.375 64.4525 19.375 74.3125 C6.45794818 79.47932073 -3.71719324 81.47515676 -16.87109375 76.5703125 C-27.5209044 71.70614367 -34.57767672 63.13391577 -38.68359375 52.3203125 C-41.88551408 42.09011063 -40.92246652 31.62279244 -36.3125 21.9375 C-30.44765556 11.26484704 -22.14794905 4.92642983 -10.625 1.3125 C-7.05638695 0.57416627 -3.62669845 0.31264642 0 0 Z " fill="#343434" transform="translate(424.625,37.6875)"/>
<path d="M0 0 C0.66 0.33 1.32 0.66 2 1 C0.98308562 3.2685013 0.26079546 4.78749999 -1.6875 6.375 C-3.34869842 8.05839018 -3.34869842 8.05839018 -2.8125 11.125 C-2.544375 12.07375 -2.27625 13.0225 -2 14 C-1.34 14.33 -0.68 14.66 0 15 C0.75 16.9375 0.75 16.9375 1 19 C0.34 19.66 -0.32 20.32 -1 21 C-1.33 20.67 -1.66 20.34 -2 20 C-2 21.65 -2 23.3 -2 25 C-2.66 25 -3.32 25 -4 25 C-4 25.99 -4 26.98 -4 28 C-4.66 28 -5.32 28 -6 28 C-6.12375 28.86625 -6.2475 29.7325 -6.375 30.625 C-7 34 -7 34 -8.01318359 36.83251953 C-9.01527295 40.04902307 -9.3102406 42.69777949 -9.4140625 46.0546875 C-9.45273437 47.16328125 -9.49140625 48.271875 -9.53125 49.4140625 C-9.57765625 51.12722656 -9.57765625 51.12722656 -9.625 52.875 C-9.66367187 54.0403125 -9.70234375 55.205625 -9.7421875 56.40625 C-9.83610319 59.27067864 -9.92177983 62.13510692 -10 65 C-9.34 65 -8.68 65 -8 65 C-7.54560547 66.23363281 -7.54560547 66.23363281 -7.08203125 67.4921875 C-4.43082852 74.55662309 -1.53637726 81.33355266 2 88 C-4.91008622 87.62308621 -9.09122233 85.60066139 -15 82 C-15.33 85.63 -15.66 89.26 -16 93 C-19.12230807 89.87769193 -20.03012032 87.93892856 -21.5625 83.875 C-21.97628906 82.79992187 -22.39007813 81.72484375 -22.81640625 80.6171875 C-29.18254258 61.16160255 -27.33841308 40.17495553 -18.875 21.6875 C-14.22437352 12.91746084 -7.84650675 6.05940201 0 0 Z " fill="#1F9DEC" transform="translate(61,20)"/>
<path d="M0 0 C4.17222168 3.85453982 6.6646418 8.17285236 7.3359375 13.83203125 C7.4227458 20.45550454 7.05029573 25.59121999 3 31 C-2.03401895 36.14842847 -7.78605578 39.04966526 -15 39.375 C-21.42584395 39.09726215 -27.55920607 36.68083685 -32 32 C-36.23315517 25.62687965 -38.35160094 19.64655717 -37 12 C-34.83846059 5.43489893 -30.99710199 0.7483095 -25 -2.75 C-16.418456 -6.32564333 -7.68611698 -5.30308508 0 0 Z M-24.75 9.5 C-27.60617912 12.92741494 -27.29222982 16.76266759 -27 21 C-25.20882468 25.14798495 -23.16507424 27.2414131 -19 29 C-15.01030457 29.59076626 -11.91534841 29.38648044 -8.1875 27.8125 C-4.46538264 24.7284599 -3.14223948 22.32756847 -2.625 17.5 C-3.15908641 12.51519351 -5.20719716 9.2154441 -9 6 C-15.57922605 4.05333761 -19.60172621 5.08719389 -24.75 9.5 Z " fill="#303030" transform="translate(330,78)"/>
<path d="M0 0 C4.8491003 4.59064572 7.2855515 9.2068492 7.96484375 15.8515625 C8.06764036 22.1335778 5.90412464 27.1198442 2 32 C-3.24113554 37.12466586 -7.65999234 38.67677345 -14.875 39.375 C-20.99606353 39.1967166 -26.05988375 36.50897931 -30.8125 32.8125 C-34.88152095 27.58090164 -37.79669374 21.80452443 -37.37890625 15.0390625 C-36.15786345 8.46808993 -33.30213735 3.2961723 -27.98046875 -0.77734375 C-18.77636592 -6.45956108 -8.91426995 -6.16992047 0 0 Z M-25.375 10.625 C-27.51251032 15.0644445 -27.51433783 18.32792362 -26 23 C-23.80176185 25.70552388 -22.10443333 27.44778333 -19 29 C-13.70550628 29.34717992 -10.25336556 29.52421718 -6 26 C-3.04847947 22.43782005 -2.51581675 19.41567944 -2.71875 14.92578125 C-3.15157083 11.96216082 -4.05472109 10.26949206 -6 8 C-13.55887372 3.12872583 -19.44184535 4.06730276 -25.375 10.625 Z " fill="#1A1A1A" transform="translate(199,78)"/>
<path d="M0 0 C3.3 0 6.6 0 10 0 C10.19625099 3.95795086 10.38051982 7.91636935 10.5625 11.875 C10.61857422 13.00292969 10.67464844 14.13085938 10.73242188 15.29296875 C10.78076172 16.36933594 10.82910156 17.44570312 10.87890625 18.5546875 C10.9260376 19.54968262 10.97316895 20.54467773 11.02172852 21.56982422 C11 24 11 24 10 26 C13.3 26 16.6 26 20 26 C20 29.3 20 32.6 20 36 C15.545 36.495 15.545 36.495 11 37 C11.01160156 37.67804688 11.02320313 38.35609375 11.03515625 39.0546875 C11.09708351 45.44204207 10.77018868 51.65969676 10 58 C12.64 58 15.28 58 18 58 C18 61.3 18 64.6 18 68 C12.06 68 6.12 68 0 68 C-0.4375 60.25 -0.4375 60.25 -0.56811523 57.82910156 C-0.80233442 53.78383445 -0.80233442 53.78383445 -1.58227539 49.81933594 C-1.72012451 49.21895508 -1.85797363 48.61857422 -2 48 C-1.505 47.505 -1.505 47.505 -1 47 C-0.76636119 45.15108054 -0.58696365 43.29511969 -0.4375 41.4375 C-0.35371094 40.42558594 -0.26992188 39.41367188 -0.18359375 38.37109375 C-0.12300781 37.58863281 -0.06242187 36.80617187 0 36 C-4.95 36.495 -4.95 36.495 -10 37 C-9.67 33.37 -9.34 29.74 -9 26 C-6.03 26 -3.06 26 0 26 C0 17.42 0 8.84 0 0 Z " fill="#282828" transform="translate(266,48)"/>
<path d="M0 0 C0 4.29 0 8.58 0 13 C-2.97 13 -5.94 13 -9 13 C-9 10.69 -9 8.38 -9 6 C-16.5559861 5.46825214 -16.5559861 5.46825214 -23 9 C-25.34483893 12.4390971 -26.01080781 14.3839551 -25.9375 18.5625 C-24.91869576 22.29811554 -23.67878703 24.2400376 -21 27 C-16.40456709 29.29771645 -9.82752346 28.24581251 -5 27 C-1 31.625 -1 31.625 -1 35 C-6.56843151 39.02164498 -12.28787496 39.75296274 -19 39 C-25.64663947 37.18529251 -30.37494619 33.87189227 -34 28 C-36.96255469 22.06403877 -37.86840495 16.4254902 -36 10 C-33.3084551 4.161418 -29.82042681 -0.38857217 -23.77734375 -2.9375 C-14.66194683 -6.09337157 -7.99772406 -5.27509459 0 0 Z " fill="#323232" transform="translate(250,78)"/>
<path d="M0 0 C-0.33 3.3 -0.66 6.6 -1 10 C-2.13888672 10.16822266 -2.13888672 10.16822266 -3.30078125 10.33984375 C-9.03655383 11.3110262 -9.03655383 11.3110262 -13.36328125 14.81640625 C-15.38149059 20.60193969 -15.67035276 26.91857679 -16 33 C-13.69 33 -11.38 33 -9 33 C-9 36.3 -9 39.6 -9 43 C-17.25 43 -25.5 43 -34 43 C-34 39.7 -34 36.4 -34 33 C-31.36 33 -28.72 33 -26 33 C-26 25.74 -26 18.48 -26 11 C-28.31 11 -30.62 11 -33 11 C-33 7.7 -33 4.4 -33 1 C-27.72 1 -22.44 1 -17 1 C-16.34 3.31 -15.68 5.62 -15 8 C-14.56429688 7.59007813 -14.12859375 7.18015625 -13.6796875 6.7578125 C-9.5692372 3.03883365 -5.83392195 0 0 0 Z " fill="#4A4A4A" transform="translate(378,73)"/>
<path d="M0 0 C3.50434854 0.56009026 4.87952333 1.61571748 7.0625 4.375 C8.54523796 6.22350621 9.94694176 7.95039672 11.6796875 9.5703125 C13 11 13 11 13.0625 13.5 C11.56416235 17.02550036 9.43368227 17.52842188 6 19 C5.34 19.66 4.68 20.32 4 21 C0.375 21.125 0.375 21.125 -3 21 C-2.95875 20.071875 -2.9175 19.14375 -2.875 18.1875 C-2.72863661 14.84190281 -2.72863661 14.84190281 -5 12 C-6.65 12.33 -8.3 12.66 -10 13 C-11.08174162 16.36541838 -10.92538169 17.29847322 -10 21 C-16.93 21 -23.86 21 -31 21 C-27.72220127 17.72220127 -27.1639187 17.59505966 -22.8125 17.3125 C-21.91144531 17.24675781 -21.01039063 17.18101562 -20.08203125 17.11328125 C-19.39496094 17.07589844 -18.70789063 17.03851563 -18 17 C-17.9071875 15.6696875 -17.9071875 15.6696875 -17.8125 14.3125 C-16.58052215 9.28982107 -13.54241622 7.18647401 -9.5625 4.125 C-6.31442187 2.69901448 -4.38226962 3.13476824 -1 4 C-0.67 2.68 -0.34 1.36 0 0 Z " fill="#F5F5F5" transform="translate(419,153)"/>
<path d="M0 0 C6.93 0 13.86 0 21 0 C21 9.57 21 19.14 21 29 C14 30 14 30 12.00390625 29.07421875 C10.63172214 27.75409583 9.31397551 26.37807188 8 25 C8 24.34 8 23.68 8 23 C8.99 23 9.98 23 11 23 C11 18.38 11 13.76 11 9 C7.37 9 3.74 9 0 9 C0 6.03 0 3.06 0 0 Z " fill="#2B2B2B" transform="translate(423,83)"/>
<path d="M0 0 C2.71224618 1.61268692 5.37352812 3.24901874 8 5 C12.68387647 5.51750695 17.43879688 5.17708468 22 4 C26 8.625 26 8.625 26 12 C20.43646922 16.01810556 14.70766193 16.76077316 8 16 C3.18393386 14.65365563 -0.7136332 12.98317532 -3.5625 8.75 C-4.036875 7.8425 -4.51125 6.935 -5 6 C-4.34 5.01 -3.68 4.02 -3 3 C-2.34 3.33 -1.68 3.66 -1 4 C-0.67 2.68 -0.34 1.36 0 0 Z " fill="#303030" transform="translate(223,101)"/>
<path d="M0 0 C5.75 0.75 5.75 0.75 8 3 C7.70564762 5.72275952 7.10064911 7.79870178 5.875 10.25 C4.75852932 13.75890786 5.3153921 16.34353779 6.00390625 19.9140625 C6 22 6 22 4.71484375 23.7109375 C3 25 3 25 0 26 C0.33 27.32 0.66 28.64 1 30 C-3.39405908 26.51505659 -4.94005735 22.3600352 -6 17 C-6.4071259 10.13702053 -4.00625145 5.42544015 0 0 Z " fill="#252525" transform="translate(219,80)"/>
<path d="M0 0 C3.3 0 6.6 0 10 0 C10 0.99 10 1.98 10 3 C7.69 3 5.38 3 3 3 C3 4.32 3 5.64 3 7 C4.98 7 6.96 7 9 7 C9 7.66 9 8.32 9 9 C7.02 9 5.04 9 3 9 C3 10.65 3 12.3 3 14 C5.64 14 8.28 14 11 14 C12.65 9.38 14.3 4.76 16 0 C17.32 0.33 18.64 0.66 20 1 C21.265625 3.58203125 21.265625 3.58203125 22.25 6.8125 C22.58515625 7.87082031 22.9203125 8.92914063 23.265625 10.01953125 C24 13 24 13 24 17 C23.01 16.67 22.02 16.34 21 16 C20.67 15.01 20.34 14.02 20 13 C17.525 12.505 17.525 12.505 15 12 C14.67 13.65 14.34 15.3 14 17 C9.38 17 4.76 17 0 17 C0 11.39 0 5.78 0 0 Z M17 5 C16.67 6.65 16.34 8.3 16 10 C16.99 10 17.98 10 19 10 C18.67 8.35 18.34 6.7 18 5 C17.67 5 17.34 5 17 5 Z " fill="#6F6F6F" transform="translate(236,134)"/>
<path d="M0 0 C2.97 0 5.94 0 9 0 C9 0.66 9 1.32 9 2 C11.31 2.66 13.62 3.32 16 4 C16 2.68 16 1.36 16 0 C18.31 0 20.62 0 23 0 C23 2.64 23 5.28 23 8 C15.41 8 7.82 8 0 8 C0 5.36 0 2.72 0 0 Z " fill="#191919" transform="translate(345,107)"/>
<path d="M0 0 C0.99 0 1.98 0 3 0 C3.99 2.64 4.98 5.28 6 8 C8.46278801 5.53721199 8.99771255 3.29323018 10 0 C11.32 0.33 12.64 0.66 14 1 C14 5.95 14 10.9 14 16 C13.01 16.33 12.02 16.66 11 17 C10.67 14.69 10.34 12.38 10 10 C9.34 11.65 8.68 13.3 8 15 C7.01 15 6.02 15 5 15 C4.34 13.02 3.68 11.04 3 9 C2.67 11.64 2.34 14.28 2 17 C1.34 17 0.68 17 0 17 C0 11.39 0 5.78 0 0 Z " fill="#797979" transform="translate(317,134)"/>
<path d="M0 0 C3.16115776 1.36983503 3.9927092 1.9890638 6 5 C4.68 5 3.36 5 2 5 C2.06142194 16.65783093 2.13867875 28.31544188 2.23571491 39.97303391 C2.28029277 45.38711791 2.31957623 50.80112884 2.34643555 56.21533203 C2.37259455 61.44801135 2.41308483 66.68040756 2.46318626 71.91291046 C2.4797702 73.90137438 2.4913369 75.88988717 2.49761391 77.87841034 C2.50628778 91.97258326 2.50628778 91.97258326 5.36174011 105.72540283 C6 108 6 108 6 112 C4 111 4 111 3.16642761 109.07989502 C0.14165778 98.26387089 0.5205379 87.31839579 0.48828125 76.171875 C0.47141199 73.96941135 0.45325877 71.76695719 0.43388367 69.56451416 C0.38662164 63.80416838 0.35665878 58.04386111 0.33044434 52.28338623 C0.30051812 46.39066973 0.25402952 40.49808564 0.20898438 34.60546875 C0.12322231 23.0703821 0.05575715 11.53526801 0 0 Z " fill="#6DB2DC" transform="translate(72,48)"/>
<path d="M0 0 C7.875 0 7.875 0 11 2 C11.25 7.625 11.25 7.625 9 11 C9.99 12.98 10.98 14.96 12 17 C11.38125 16.835 10.7625 16.67 10.125 16.5 C8.03936614 15.92365356 8.03936614 15.92365356 6 16 C5.67 16.33 5.34 16.66 5 17 C3.35 17 1.7 17 0 17 C0 11.39 0 5.78 0 0 Z M3 3 C3 4.65 3 6.3 3 8 C4.65 7.67 6.3 7.34 8 7 C8 5.68 8 4.36 8 3 C6.35 3 4.7 3 3 3 Z M3 10 C3.33 10.66 3.66 11.32 4 12 C4.33 11.34 4.66 10.68 5 10 C4.34 10 3.68 10 3 10 Z " fill="#5C5C5C" transform="translate(412,134)"/>
<path d="M0 0 C4.66154042 1.49835228 5.86610751 4.88463591 8 9 C8.33 6.03 8.66 3.06 9 0 C9.99 0.33 10.98 0.66 12 1 C12 5.95 12 10.9 12 16 C10.68 16 9.36 16 8 16 C6.515625 14.25 6.515625 14.25 5.25 12 C4.82203125 11.2575 4.3940625 10.515 3.953125 9.75 C3.48132813 8.88375 3.48132813 8.88375 3 8 C2.67 10.97 2.34 13.94 2 17 C1.01 16.67 0.02 16.34 -1 16 C-1.02685095 13.52076199 -1.04676547 11.0418116 -1.0625 8.5625 C-1.07506836 7.50192383 -1.07506836 7.50192383 -1.08789062 6.41992188 C-1.09653588 4.61306441 -1.05220011 2.80612397 -1 1 C-0.67 0.67 -0.34 0.34 0 0 Z " fill="#767676" transform="translate(366,134)"/>
<path d="M0 0 C8 0 8 0 11 2 C11.25237588 4.90232265 11.22242129 7.26600976 10.375 10.0625 C9.84319835 12.81014184 10.83095642 14.5243783 12 17 C10.1875 16.8125 10.1875 16.8125 8 16 C6.375 13.5 6.375 13.5 5 11 C4.34 10.67 3.68 10.34 3 10 C3 12.31 3 14.62 3 17 C2.01 17 1.02 17 0 17 C0 11.39 0 5.78 0 0 Z M3 3 C3 4.65 3 6.3 3 8 C4.65 7.67 6.3 7.34 8 7 C8 5.68 8 4.36 8 3 C6.35 3 4.7 3 3 3 Z " fill="#181818" transform="translate(202,134)"/>
<path d="M0 0 C7.875 0 7.875 0 11 2 C11.25 7.625 11.25 7.625 9 11 C9.99 12.485 9.99 12.485 11 14 C11 14.99 11 15.98 11 17 C7.51866169 15.60746468 6.52113967 14.36823784 5 11 C4.34 10.67 3.68 10.34 3 10 C3 12.31 3 14.62 3 17 C2.01 17 1.02 17 0 17 C0 11.39 0 5.78 0 0 Z M3 3 C3 4.65 3 6.3 3 8 C4.65 7.67 6.3 7.34 8 7 C8 5.68 8 4.36 8 3 C6.35 3 4.7 3 3 3 Z " fill="#818181" transform="translate(262,134)"/>
<path d="M0 0 C3.3125 1 3.3125 1 5.3125 4 C5.99148233 8.28706286 5.99007662 11.86167128 3.75 15.625 C1.3125 17 1.3125 17 -2.25 17 C-5.6875 16 -5.6875 16 -7.625 14.375 C-9.1465889 10.97380129 -9.20499792 8.68717269 -8.6875 5 C-5.97713219 1.05764682 -4.84348632 0 0 0 Z M-3.6875 3 C-6.07548682 5.90585687 -6.07548682 5.90585687 -5.375 9.625 C-5.04636877 12.82504312 -5.04636877 12.82504312 -3.6875 14 C-2.02132885 14.04063832 -0.35361905 14.042721 1.3125 14 C2.80547212 11.01405576 2.43005228 8.29146376 2.3125 5 C1.9825 4.34 1.6525 3.68 1.3125 3 C-1.10369823 2.74969023 -1.10369823 2.74969023 -3.6875 3 Z " fill="#1A1A1A" transform="translate(178.6875,134)"/>
<path d="M0 0 C4.95 0 9.9 0 15 0 C15 2.64 15 5.28 15 8 C14.401875 7.814375 13.80375 7.62875 13.1875 7.4375 C10.83591238 6.77906313 10.83591238 6.77906313 8 8 C6.60560336 8.06665376 5.20830125 8.08538199 3.8125 8.0625 C1.9253125 8.0315625 1.9253125 8.0315625 0 8 C0 5.36 0 2.72 0 0 Z " fill="#1A1A1A" transform="translate(346,75)"/>
<path d="M0 0 C0.99 0 1.98 0 3 0 C3 2.31 3 4.62 3 7 C4.98 7 6.96 7 9 7 C9 4.69 9 2.38 9 0 C9.99 0 10.98 0 12 0 C12 5.61 12 11.22 12 17 C11.01 17 10.02 17 9 17 C9 14.36 9 11.72 9 9 C7.02 9 5.04 9 3 9 C3 11.64 3 14.28 3 17 C2.01 17 1.02 17 0 17 C0 11.39 0 5.78 0 0 Z " fill="#696969" transform="translate(221,134)"/>
<path d="M0 0 C0.99 0 1.98 0 3 0 C3.33 4.29 3.66 8.58 4 13 C5.32 13 6.64 13 8 13 C8.33 8.71 8.66 4.42 9 0 C9.99 0 10.98 0 12 0 C12.08097324 2.27024968 12.13917704 4.54132075 12.1875 6.8125 C12.22230469 8.07707031 12.25710938 9.34164062 12.29296875 10.64453125 C12 14 12 14 10.67578125 15.921875 C8.02058097 17.63011574 6.06656388 17.44720723 3 17 C0.49683342 14.60186139 0.02258311 13.24931754 -0.29296875 9.765625 C-0.24076172 8.02539062 -0.24076172 8.02539062 -0.1875 6.25 C-0.16042969 5.07953125 -0.13335937 3.9090625 -0.10546875 2.703125 C-0.07066406 1.81109375 -0.03585937 0.9190625 0 0 Z " fill="#6A6A6A" transform="translate(350,134)"/>
<path d="M0 0 C0.99 0 1.98 0 3 0 C3.33 4.29 3.66 8.58 4 13 C5.32 13 6.64 13 8 13 C8.33 8.71 8.66 4.42 9 0 C9.99 0 10.98 0 12 0 C12.08126087 2.08268593 12.13930839 4.16628658 12.1875 6.25 C12.22230469 7.41015625 12.25710937 8.5703125 12.29296875 9.765625 C11.97741689 13.24931754 11.50316658 14.60186139 9 17 C5.93343612 17.44720723 3.97941903 17.63011574 1.32421875 15.921875 C-0.71681125 12.95967217 -0.28487183 10.35034313 -0.1875 6.8125 C-0.16042969 5.54019531 -0.13335937 4.26789063 -0.10546875 2.95703125 C-0.07066406 1.98121094 -0.03585938 1.00539062 0 0 Z " fill="#1A1A1A" transform="translate(187,134)"/>
<path d="M0 0 C1.23556641 0.01740234 1.23556641 0.01740234 2.49609375 0.03515625 C3.32238281 0.04417969 4.14867187 0.05320313 5 0.0625 C5.63808594 0.07410156 6.27617187 0.08570313 6.93359375 0.09765625 C6.93359375 1.08765625 6.93359375 2.07765625 6.93359375 3.09765625 C4.62359375 3.09765625 2.31359375 3.09765625 -0.06640625 3.09765625 C-0.06640625 4.41765625 -0.06640625 5.73765625 -0.06640625 7.09765625 C1.91359375 7.09765625 3.89359375 7.09765625 5.93359375 7.09765625 C5.93359375 7.75765625 5.93359375 8.41765625 5.93359375 9.09765625 C3.95359375 9.09765625 1.97359375 9.09765625 -0.06640625 9.09765625 C-0.06640625 10.74765625 -0.06640625 12.39765625 -0.06640625 14.09765625 C2.57359375 14.09765625 5.21359375 14.09765625 7.93359375 14.09765625 C7.93359375 15.08765625 7.93359375 16.07765625 7.93359375 17.09765625 C6.28784809 17.12453776 4.64197962 17.14399748 2.99609375 17.16015625 C2.07957031 17.17175781 1.16304688 17.18335938 0.21875 17.1953125 C-2.06640625 17.09765625 -2.06640625 17.09765625 -3.06640625 16.09765625 C-3.16615657 13.58629521 -3.20522808 11.1086221 -3.19140625 8.59765625 C-3.19527344 7.89511719 -3.19914062 7.19257813 -3.203125 6.46875 C-3.19095169 0.15080112 -3.19095169 0.15080112 0 0 Z " fill="#5B5B5B" transform="translate(402.06640625,133.90234375)"/>
<path d="M0 0 C3.3 0 6.6 0 10 0 C10 0.99 10 1.98 10 3 C7.69 3 5.38 3 3 3 C3 4.32 3 5.64 3 7 C4.98 7 6.96 7 9 7 C9 7.66 9 8.32 9 9 C7.02 9 5.04 9 3 9 C3 10.65 3 12.3 3 14 C5.31 14 7.62 14 10 14 C10 14.99 10 15.98 10 17 C6.7 17 3.4 17 0 17 C0 11.39 0 5.78 0 0 Z " fill="#7B7B7B" transform="translate(438,134)"/>
<path d="M0 0 C0 0.99 0 1.98 0 3 C-1.134375 2.835 -2.26875 2.67 -3.4375 2.5 C-14.58327209 1.30077136 -25.41256134 0.96967325 -36 5 C-37.32875941 5.35112295 -38.66103053 5.69008122 -40 6 C-39.67 5.01 -39.34 4.02 -39 3 C-35.535 2.505 -35.535 2.505 -32 2 C-32 1.34 -32 0.68 -32 0 C-21.53989819 -3.38375565 -10.57659711 -2.78724441 0 0 Z " fill="#60B6E5" transform="translate(112,27)"/>
<path d="M0 0 C3 0.1875 3 0.1875 5 1.1875 C4.67 2.1775 4.34 3.1675 4 4.1875 C1.03 3.6925 1.03 3.6925 -2 3.1875 C-1.67 4.1775 -1.34 5.1675 -1 6.1875 C-0.01 6.64125 0.98 7.095 2 7.5625 C5 9.1875 5 9.1875 6.0625 11.6875 C6 14.1875 6 14.1875 4.9375 16 C2.17428518 17.69358328 0.18170002 17.51892708 -3 17.1875 C-3.99 16.5275 -4.98 15.8675 -6 15.1875 C-6 14.5275 -6 13.8675 -6 13.1875 C-3.36 13.1875 -0.72 13.1875 2 13.1875 C2.33 12.5275 2.66 11.8675 3 11.1875 C2.05125 10.89875 1.1025 10.61 0.125 10.3125 C-3 9.1875 -3 9.1875 -5 7.1875 C-5.25 4.6875 -5.25 4.6875 -5 2.1875 C-3 0.1875 -3 0.1875 0 0 Z " fill="#555555" transform="translate(304,133.8125)"/>
<path d="M0 0 C3.63 0 7.26 0 11 0 C11 0.33 11 0.66 11 1 C6.545 1.495 6.545 1.495 2 2 C2.01160156 2.67804688 2.02320313 3.35609375 2.03515625 4.0546875 C2.09708351 10.44204207 1.77018868 16.65969676 1 23 C3.64 23 6.28 23 9 23 C9 26.3 9 29.6 9 33 C3.06 33 -2.88 33 -9 33 C-9.4375 25.25 -9.4375 25.25 -9.56811523 22.82910156 C-9.77051551 19.43151559 -10.10379549 16.2786414 -11 13 C-10.01 12.34 -9.02 11.68 -8 11 C-8 17.93 -8 24.86 -8 32 C-2.72 32 2.56 32 8 32 C8 29.36 8 26.72 8 24 C5.36 24 2.72 24 0 24 C0 16.08 0 8.16 0 0 Z " fill="#C7C7C7" transform="translate(275,83)"/>
<path d="M0 0 C0 0.99 0 1.98 0 3 C-2.31 2.67 -4.62 2.34 -7 2 C-5.00008366 4.07134193 -3.18408726 5.8823887 -0.75 7.4375 C1 9 1 9 1.4375 11.5625 C1.293125 12.366875 1.14875 13.17125 1 14 C-2.45662331 16.30441554 -3.94857881 16.25860135 -8 16 C-8.66 15.67 -9.32 15.34 -10 15 C-10 14.01 -10 13.02 -10 12 C-7.36 12.33 -4.72 12.66 -2 13 C-2.33 12.01 -2.66 11.02 -3 10 C-3.99 9.54625 -4.98 9.0925 -6 8.625 C-9 7 -9 7 -10.0625 4.5 C-10 2 -10 2 -9 0.125 C-5.89740743 -1.62020832 -3.3726293 -0.69997967 0 0 Z " fill="#727272" transform="translate(435,135)"/>
<path d="M0 0 C4.002247 -0.31390173 6.38328737 -0.34116018 9.9375 1.625 C12.54448653 4.62698449 12.25203919 6.1353991 12 10 C12.66 10.66 13.32 11.32 14 12 C7.4 11.67 0.8 11.34 -6 11 C-6 10.67 -6 10.34 -6 10 C-0.555 9.505 -0.555 9.505 5 9 C3.7625 7.329375 3.7625 7.329375 2.5 5.625 C0 2.25 0 2.25 0 0 Z " fill="#E7F4F7" transform="translate(97,0)"/>
<path d="M0 0 C0.99 0 1.98 0 3 0 C4.32 3.3 5.64 6.6 7 10 C7.99 6.7 8.98 3.4 10 0 C10.99 0 11.98 0 13 0 C11.83348574 5.92863717 10.24480642 11.38798394 8 17 C7.01 17 6.02 17 5 17 C4.16301614 14.54285453 3.33027576 12.08441143 2.5 9.625 C2.26152344 8.92632812 2.02304687 8.22765625 1.77734375 7.5078125 C0 2.2265625 0 2.2265625 0 0 Z " fill="#6F6F6F" transform="translate(385,134)"/>
<path d="M0 0 C1.65 0 3.3 0 5 0 C4.57625199 2.75436203 3.87511046 4.1679549 2.1875 6.4375 C-5.58708333 17.81563107 -5.06805934 32.83051742 -5 46 C-5.66 46 -6.32 46 -7 46 C-7.08783475 42.0001407 -7.14067102 38.00053296 -7.1875 34 C-7.21263672 32.87464844 -7.23777344 31.74929687 -7.26367188 30.58984375 C-7.32220376 23.91720865 -6.7441102 19.08266241 -4 13 C-3.64235443 11.67298134 -3.30270273 10.34061924 -3 9 C-2.34 9 -1.68 9 -1 9 C-1 8.01 -1 7.02 -1 6 C-0.34 6 0.32 6 1 6 C0.67 4.02 0.34 2.04 0 0 Z " fill="#6AB6E4" transform="translate(58,39)"/>
<path d="M0 0 C1.1446875 0.3403125 1.1446875 0.3403125 2.3125 0.6875 C2.9725 3.3275 3.6325 5.9675 4.3125 8.6875 C-0.6375 10.1725 -0.6375 10.1725 -5.6875 11.6875 C-6.05712751 3.18606734 -6.05712751 3.18606734 -4.34375 0.875 C-2.6875 -0.3125 -2.6875 -0.3125 0 0 Z " fill="#F3F3F3" transform="translate(73.6875,5.3125)"/>
<path d="M0 0 C0.66 0 1.32 0 2 0 C4.64 5.61 7.28 11.22 10 17 C1 15.875 1 15.875 -4 12 C-3.34 11.67 -2.68 11.34 -2 11 C-2 10.34 -2 9.68 -2 9 C0.99332739 9.9977758 1.94766315 10.7522025 4 13 C4 11.68 4 10.36 4 9 C3.34 9 2.68 9 2 9 C0.14223235 5.86501708 -0.20140476 3.62528568 0 0 Z " fill="#61B5E5" transform="translate(53,91)"/>
<path d="M0 0 C2.97 0.495 2.97 0.495 6 1 C6.33 2.32 6.66 3.64 7 5 C6.01 5 5.02 5 4 5 C3.67 8.63 3.34 12.26 3 16 C-0.79456557 12.20543443 -2.84130072 8.48628866 -3.1875 3.0625 C-3.125625 2.381875 -3.06375 1.70125 -3 1 C-2.01 1.33 -1.02 1.66 0 2 C0 1.34 0 0.68 0 0 Z " fill="#3DA5E3" transform="translate(42,97)"/>
<path d="M0 0 C0.99 0 1.98 0 3 0 C3.66 1.98 4.32 3.96 5 6 C5.66 6 6.32 6 7 6 C7.66 4.02 8.32 2.04 9 0 C9.99 0 10.98 0 12 0 C10.21656051 5.60509554 10.21656051 5.60509554 8.9375 7.9375 C7.60329743 10.87274566 7.36721785 13.81744533 7 17 C6.01 16.67 5.02 16.34 4 16 C3.87882812 15.34773437 3.75765625 14.69546875 3.6328125 14.0234375 C2.71056011 9.21353658 1.69832723 4.60974535 0 0 Z " fill="#6C6C6C" transform="translate(332,134)"/>
<path d="M0 0 C0.33 0 0.66 0 1 0 C1.38063221 2.3260857 1.71269945 4.66055264 2 7 C1.67 7.33 1.34 7.66 1 8 C0.91152257 10.52094076 0.88472699 13.01430893 0.90234375 15.53515625 C0.9037587 16.28840683 0.90517365 17.04165741 0.90663147 17.81773376 C0.91224624 20.2326956 0.92480117 22.64756601 0.9375 25.0625 C0.9425131 26.69596221 0.94707634 28.32942586 0.95117188 29.96289062 C0.96222046 33.97529585 0.97949494 37.98763241 1 42 C-2.5685851 35.57654682 -2.18293561 28.96490426 -2.1875 21.8125 C-2.19974609 20.82185547 -2.21199219 19.83121094 -2.22460938 18.81054688 C-2.23740574 12.30572901 -1.53692127 6.32096969 0 0 Z " fill="#64B5E3" transform="translate(37,55)"/>
<path d="M0 0 C0.99 0 1.98 0 3 0 C3.66 1.98 4.32 3.96 5 6 C5.66 6 6.32 6 7 6 C7.66 4.02 8.32 2.04 9 0 C9.99 0 10.98 0 12 0 C10.21656051 5.60509554 10.21656051 5.60509554 8.9375 7.9375 C7.60329743 10.87274566 7.36721785 13.81744533 7 17 C6.34 17 5.68 17 5 17 C4.89042969 16.41992188 4.78085938 15.83984375 4.66796875 15.2421875 C3.68125712 10.38082776 2.36364178 6.40496877 0 2 C0 1.34 0 0.68 0 0 Z " fill="#191919" transform="translate(158,134)"/>
<path d="M0 0 C3.96 0 7.92 0 12 0 C12 0.99 12 1.98 12 3 C10.35 3 8.7 3 7 3 C7 7.62 7 12.24 7 17 C6.34 17 5.68 17 5 17 C4.67 12.71 4.34 8.42 4 4 C2.68 3.67 1.36 3.34 0 3 C0 2.01 0 1.02 0 0 Z " fill="#616161" transform="translate(274,134)"/>
<path d="M0 0 C1.32 0.33 2.64 0.66 4 1 C4 5.95 4 10.9 4 16 C3.01 16.33 2.02 16.66 1 17 C0.67 14.69 0.34 12.38 0 10 C-0.66 10 -1.32 10 -2 10 C-1.54177532 6.53058454 -1.10868317 3.32604951 0 0 Z " fill="#777777" transform="translate(327,134)"/>
<path d="M0 0 C4.55751141 1.41955274 7.4205601 3.96555341 10.6875 7.3125 C11.41549805 8.0230957 11.41549805 8.0230957 12.15820312 8.74804688 C15.00872971 11.62216403 16.79412036 14.12849168 18 18 C15.125 17.3125 15.125 17.3125 12 16 C10.6875 13.5625 10.6875 13.5625 10 11 C9.67 10.01 9.34 9.02 9 8 C7.8553125 8.1546875 7.8553125 8.1546875 6.6875 8.3125 C5.3571875 8.1578125 5.3571875 8.1578125 4 8 C2.02493835 5.39009711 1.0343299 3.10298971 0 0 Z " fill="#5AB2E7" transform="translate(126,18)"/>
<path d="M0 0 C0.99 0 1.98 0 3 0 C3 5.61 3 11.22 3 17 C2.01 17 1.02 17 0 17 C0 11.39 0 5.78 0 0 Z " fill="#747474" transform="translate(381,134)"/>
<path d="M0 0 C0.99 0 1.98 0 3 0 C3 5.61 3 11.22 3 17 C2.01 17 1.02 17 0 17 C0 11.39 0 5.78 0 0 Z " fill="#747474" transform="translate(293,134)"/>
<path d="M0 0 C0.99 0 1.98 0 3 0 C3.02692484 2.29160319 3.04636124 4.58329546 3.0625 6.875 C3.07410156 8.15117187 3.08570313 9.42734375 3.09765625 10.7421875 C3 14 3 14 2 16 C0.68 15.34 -0.64 14.68 -2 14 C-1.67 13.67 -1.34 13.34 -1 13 C-0.76518307 10.81707226 -0.58636677 8.62796826 -0.4375 6.4375 C-0.35371094 5.23996094 -0.26992188 4.04242188 -0.18359375 2.80859375 C-0.12300781 1.88175781 -0.06242187 0.95492187 0 0 Z " fill="#767676" transform="translate(359,134)"/>
<path d="M0 0 C1.23556641 0.01740234 1.23556641 0.01740234 2.49609375 0.03515625 C3.32238281 0.04417969 4.14867187 0.05320313 5 0.0625 C5.63808594 0.07410156 6.27617187 0.08570313 6.93359375 0.09765625 C6.93359375 1.08765625 6.93359375 2.07765625 6.93359375 3.09765625 C4.62359375 3.09765625 2.31359375 3.09765625 -0.06640625 3.09765625 C-0.86201389 6.01265568 -1.31963124 8.84327044 -1.62890625 11.84765625 C-1.71269531 12.646875 -1.79648437 13.44609375 -1.8828125 14.26953125 C-1.94339844 14.8728125 -2.00398438 15.47609375 -2.06640625 16.09765625 C-2.39640625 16.09765625 -2.72640625 16.09765625 -3.06640625 16.09765625 C-3.0932572 13.61841824 -3.11317172 11.13946785 -3.12890625 8.66015625 C-3.14147461 7.59958008 -3.14147461 7.59958008 -3.15429688 6.51757812 C-3.16294213 4.71072066 -3.11860636 2.90378022 -3.06640625 1.09765625 C-2.06640625 0.09765625 -2.06640625 0.09765625 0 0 Z " fill="#959595" transform="translate(402.06640625,133.90234375)"/>
<path d="M0 0 C0.33 0 0.66 0 1 0 C1 6.93 1 13.86 1 21 C6.28 21 11.56 21 17 21 C17 21.33 17 21.66 17 22 C11.39 22 5.78 22 0 22 C-0.4375 14.25 -0.4375 14.25 -0.56811523 11.82910156 C-0.78770842 7.80381955 -0.78770842 7.80381955 -1.64477539 3.88183594 C-1.76199951 3.26083008 -1.87922363 2.63982422 -2 2 C-1.34 1.34 -0.68 0.68 0 0 Z " fill="#737373" transform="translate(266,94)"/>
<path d="M0 0 C2 1.1875 2 1.1875 4 3 C4.25 5.6875 4.25 5.6875 4 8 C2.35 8 0.7 8 -1 8 C-1.33 9.65 -1.66 11.3 -2 13 C-2.99 13 -3.98 13 -5 13 C-4.731875 12.34 -4.46375 11.68 -4.1875 11 C-2.74294953 7.35060933 -1.37128822 3.67754567 0 0 Z " fill="#4DA8DE" transform="translate(86,46)"/>
<path d="M0 0 C0.66 0.99 1.32 1.98 2 3 C4.24680857 5.39176397 6.2539408 7.16929387 9 9 C6.69 9 4.38 9 2 9 C1.67 9.66 1.34 10.32 1 11 C0.01 11 -0.98 11 -2 11 C-2.24042276 6.91281305 -1.42258812 3.82320557 0 0 Z " fill="#2C9ADE" transform="translate(91,146)"/>
<path d="M0 0 C2.6875 0.875 2.6875 0.875 5 2 C5 2.66 5 3.32 5 4 C3.03852126 5.38938077 1.03833424 6.7260411 -1 8 C-1.99 7.34 -2.98 6.68 -4 6 C-3.6875 4.125 -3.6875 4.125 -3 2 C-2.01 1.34 -1.02 0.68 0 0 Z " fill="#34A3E9" transform="translate(64,32)"/>
<path d="M0 0 C0.33 0 0.66 0 1 0 C1.1875 2.375 1.1875 2.375 1 5 C-2.45662331 7.30441554 -3.94857881 7.25860135 -8 7 C-8.66 6.67 -9.32 6.34 -10 6 C-10 5.01 -10 4.02 -10 3 C-7.36 3.33 -4.72 3.66 -2 4 C-1.67 3.01 -1.34 2.02 -1 1 C-0.67 0.67 -0.34 0.34 0 0 Z " fill="#808080" transform="translate(435,144)"/>
<path d="M0 0 C0.99 0 1.98 0 3 0 C2.83628906 0.69480469 2.67257812 1.38960937 2.50390625 2.10546875 C1.95904004 5.2352816 1.90261517 8.13798083 1.9375 11.3125 C1.94652344 12.38113281 1.95554687 13.44976562 1.96484375 14.55078125 C1.97644531 15.35902344 1.98804688 16.16726562 2 17 C1.34 17 0.68 17 0 17 C0 11.39 0 5.78 0 0 Z " fill="#454545" transform="translate(317,134)"/>
<path d="M0 0 C0.33 0.99 0.66 1.98 1 3 C-0.125 4.5 -0.125 4.5 -2 6 C-6.07794425 6.42478586 -7.53076119 6.31282587 -11 4 C-11 3.34 -11 2.68 -11 2 C-7.37 2 -3.74 2 0 2 C0 1.34 0 0.68 0 0 Z " fill="#7E7E7E" transform="translate(309,145)"/>
<path d="M0 0 C1.32 0.66 2.64 1.32 4 2 C2.88121617 3.17262904 1.75476949 4.33795138 0.625 5.5 C-0.00148438 6.1496875 -0.62796875 6.799375 -1.2734375 7.46875 C-3 9 -3 9 -5 9 C-5 7.68 -5 6.36 -5 5 C-4.34 5 -3.68 5 -3 5 C-2.67 4.01 -2.34 3.02 -2 2 C-1.34 2 -0.68 2 0 2 C0 1.34 0 0.68 0 0 Z " fill="#2E9BDD" transform="translate(126,155)"/>
<path d="M0 0 C1 3 1 3 0.22265625 5.04296875 C-0.16019531 5.75066406 -0.54304687 6.45835937 -0.9375 7.1875 C-1.31777344 7.90292969 -1.69804687 8.61835938 -2.08984375 9.35546875 C-2.39019531 9.89816406 -2.69054687 10.44085938 -3 11 C-3.66 9.68 -4.32 8.36 -5 7 C-5.99 7.495 -5.99 7.495 -7 8 C-6.38722388 5.03824877 -5.74627478 3.61941217 -4 1 C-3.34 1.99 -2.68 2.98 -2 4 C-1.67 3.34 -1.34 2.68 -1 2 C-1.66 1.67 -2.32 1.34 -3 1 C-2.01 0.67 -1.02 0.34 0 0 Z " fill="#2D9BE2" transform="translate(145,128)"/>
<path d="M0 0 C3 0.1875 3 0.1875 5 1.1875 C4.67 2.1775 4.34 3.1675 4 4.1875 C1.03 3.6925 1.03 3.6925 -2 3.1875 C-2.33 4.1775 -2.66 5.1675 -3 6.1875 C-3.99 6.6825 -3.99 6.6825 -5 7.1875 C-5.125 4.8125 -5.125 4.8125 -5 2.1875 C-3 0.1875 -3 0.1875 0 0 Z " fill="#7E7E7E" transform="translate(304,133.8125)"/>
<path d="M0 0 C0.66 0 1.32 0 2 0 C2.33 2.31 2.66 4.62 3 7 C3.66 7 4.32 7 5 7 C5 5.35 5 3.7 5 2 C5.33 2 5.66 2 6 2 C6 5.63 6 9.26 6 13 C2.76496924 9.76496924 1.59119697 7.24319191 0 3 C0 2.01 0 1.02 0 0 Z " fill="#7BBBE1" transform="translate(39,100)"/>
<path d="M0 0 C5.70709064 0.46588495 9.15939723 1.93757784 14 5 C13.01 5.66 12.02 6.32 11 7 C11 6.34 11 5.68 11 5 C7.7 4.34 4.4 3.68 1 3 C0.67 2.01 0.34 1.02 0 0 Z " fill="#72BDE9" transform="translate(112,12)"/>
<path d="M0 0 C0.99 0 1.98 0 3 0 C2.68950274 1.43793392 2.3765224 2.8753318 2.0625 4.3125 C1.88847656 5.11300781 1.71445312 5.91351563 1.53515625 6.73828125 C1 9 1 9 0 12 C-0.66 12 -1.32 12 -2 12 C-1.85831863 10.56208484 -1.71148957 9.1246763 -1.5625 7.6875 C-1.48128906 6.88699219 -1.40007812 6.08648437 -1.31640625 5.26171875 C-1 3 -1 3 0 0 Z " fill="#6D6D6D" transform="translate(395,134)"/>
<path d="M0 0 C-1.57347176 1.035969 -3.15921546 2.05331732 -4.75 3.0625 C-5.63171875 3.63097656 -6.5134375 4.19945312 -7.421875 4.78515625 C-10 6 -10 6 -12.328125 5.68359375 C-13.15570313 5.34521484 -13.15570313 5.34521484 -14 5 C-12.68 4.67 -11.36 4.34 -10 4 C-10 3.34 -10 2.68 -10 2 C-3.75 -1.125 -3.75 -1.125 0 0 Z " fill="#3C9BD6" transform="translate(121,165)"/>
<path d="M0 0 C0.33 0 0.66 0 1 0 C1.08131463 1.43655854 1.13933559 2.8744483 1.1875 4.3125 C1.22230469 5.11300781 1.25710937 5.91351563 1.29296875 6.73828125 C0.93801608 9.47851584 0.10633718 10.29171079 -2 12 C-2 11.34 -2 10.68 -2 10 C-2.66 10 -3.32 10 -4 10 C-2.8905928 6.51329166 -1.73662334 3.22515763 0 0 Z " fill="#309AE0" transform="translate(126,130)"/>
<path d="M0 0 C1.32 0.33 2.64 0.66 4 1 C3.01 1 2.02 1 1 1 C1 2.98 1 4.96 1 7 C2.65 7.33 4.3 7.66 6 8 C6 8.66 6 9.32 6 10 C4.35 9.67 2.7 9.34 1 9 C1 10.98 1 12.96 1 15 C0.67 15 0.34 15 0 15 C0 10.05 0 5.1 0 0 Z " fill="#242424" transform="translate(263,135)"/>
<path d="M0 0 C0.33 0 0.66 0 1 0 C1 2.64 1 5.28 1 8 C0.34 8 -0.32 8 -1 8 C-0.9175 8.7425 -0.835 9.485 -0.75 10.25 C-1.07105184 13.78157027 -2.35265617 14.76630364 -5 17 C-4.80664062 16.35933594 -4.61328125 15.71867188 -4.4140625 15.05859375 C-2.9059252 10.04889015 -1.42282214 5.03460143 0 0 Z " fill="#369AD8" transform="translate(132,113)"/>
<path d="M0 0 C0.99 0.66 1.98 1.32 3 2 C3 2.99 3 3.98 3 5 C0.6875 6.75 0.6875 6.75 -2 8 C-2.99 7.67 -3.98 7.34 -5 7 C-4.34 7 -3.68 7 -3 7 C-2.690625 6.030625 -2.38125 5.06125 -2.0625 4.0625 C-1 1 -1 1 0 0 Z " fill="#545454" transform="translate(246,108)"/>
<path d="M0 0 C1.32 0 2.64 0 4 0 C3.65120368 3.25543229 2.97866739 4.01873107 0.4375 6.25 C-0.366875 6.8275 -1.17125 7.405 -2 8 C-2.33 6.02 -2.66 4.04 -3 2 C-2.34 1.67 -1.68 1.34 -1 1 C-0.67 0.67 -0.34 0.34 0 0 Z " fill="#484848" transform="translate(330,105)"/>
<path d="M0 0 C0.99 0.33 1.98 0.66 3 1 C3.33 2.98 3.66 4.96 4 7 C2.68 7.33 1.36 7.66 0 8 C-0.79953138 4.71303767 -1.09658936 3.28976808 0 0 Z " fill="#797979" transform="translate(390,143)"/>
<path d="M0 0 C0.99 0.33 1.98 0.66 3 1 C3 4.33340345 2.73162598 6.20984394 0.4375 8.6875 C-0.036875 9.120625 -0.51125 9.55375 -1 10 C-2.15837626 5.94568308 -1.83691257 3.78187881 0 0 Z " fill="#8B8B8B" transform="translate(252,134)"/>
<path d="M0 0 C3.37503669 1.1858237 5.64722731 2.27573689 8 5 C7.67 5.99 7.34 6.98 7 8 C6.01 8 5.02 8 4 8 C2.15473038 5.37403939 1.01624151 3.04872454 0 0 Z " fill="#4FADE5" transform="translate(126,18)"/>
<path d="M0 0 C-1.65 0.33 -3.3 0.66 -5 1 C-5 1.66 -5 2.32 -5 3 C-6.98 3.66 -8.96 4.32 -11 5 C-11.66 4.34 -12.32 3.68 -13 3 C-11.5903653 2.29819469 -10.17192359 1.61406042 -8.75 0.9375 C-7.96109375 0.55464844 -7.1721875 0.17179687 -6.359375 -0.22265625 C-3.74006478 -1.08564091 -2.55144824 -0.93045933 0 0 Z " fill="#4DA7E0" transform="translate(76,16)"/>
<path d="M0 0 C2.475 0.99 2.475 0.99 5 2 C4.34 3.65 3.68 5.3 3 7 C1.35 7 -0.3 7 -2 7 C-1.34 6.67 -0.68 6.34 0 6 C0 4.02 0 2.04 0 0 Z " fill="#DBDBDB" transform="translate(414,144)"/>
<path d="M0 0 C6.0546875 -0.1953125 6.0546875 -0.1953125 8 0 C8.66 0.66 9.32 1.32 10 2 C5.05 3.485 5.05 3.485 0 5 C0 3.35 0 1.7 0 0 Z " fill="#CEECFA" transform="translate(68,12)"/>
<path d="M0 0 C0.99 0.33 1.98 0.66 3 1 C3 2.98 3 4.96 3 7 C2.01 7.495 2.01 7.495 1 8 C-1.125 7.0625 -1.125 7.0625 -3 6 C-2.01 6 -1.02 6 0 6 C0 4.02 0 2.04 0 0 Z " fill="#727272" transform="translate(420,135)"/>
<path d="M0 0 C0.66 0.33 1.32 0.66 2 1 C0.89300099 4.21029714 -0.01603825 5.00968977 -3 6.8125 C-3.99 7.204375 -4.98 7.59625 -6 8 C-6.66 7.67 -7.32 7.34 -8 7 C-5.36 4.69 -2.72 2.38 0 0 Z " fill="#69BAE5" transform="translate(61,20)"/>
<path d="M0 0 C0.99 0.33 1.98 0.66 3 1 C0.525 5.455 0.525 5.455 -2 10 C-2.33 10 -2.66 10 -3 10 C-3.33 8.02 -3.66 6.04 -4 4 C-2.68 4 -1.36 4 0 4 C0 2.68 0 1.36 0 0 Z " fill="#3799D7" transform="translate(138,140)"/>
<path d="M0 0 C6.875 0.875 6.875 0.875 8 2 C8.04063832 3.66617115 8.042721 5.33388095 8 7 C7.67 6.01 7.34 5.02 7 4 C5.01276732 3.29618843 3.01222047 2.6288189 1 2 C0.67 1.34 0.34 0.68 0 0 Z " fill="#484848" transform="translate(427,141)"/>
<path d="M0 0 C2.97 0 5.94 0 9 0 C9 0.66 9 1.32 9 2 C6.69 2 4.38 2 2 2 C1.67 3.32 1.34 4.64 1 6 C0.67 4.02 0.34 2.04 0 0 Z " fill="#545454" transform="translate(439,135)"/>
<path d="M0 0 C3.24732932 1.62366466 3.70155136 4.75387839 5 8 C1.125 7.125 1.125 7.125 0 6 C-0.04080783 4.00041636 -0.04254356 1.99954746 0 0 Z " fill="#787878" transform="translate(419,143)"/>
<path d="M0 0 C1 3 1 3 0.375 5.0625 C-1.40232276 7.56690935 -3.1198813 8.09048883 -6 9 C-4.47291037 5.56404834 -2.40072955 2.88087546 0 0 Z " fill="#64B7E3" transform="translate(52,28)"/>
<path d="M0 0 C0.99 0 1.98 0 3 0 C6 4.22222222 6 4.22222222 6 7 C3.00675737 5.9024777 2.15389099 5.32317108 0.75 2.375 C0.5025 1.59125 0.255 0.8075 0 0 Z " fill="#67B6E1" transform="translate(78,160)"/>
<path d="M0 0 C2 1 2 1 2.6328125 2.84765625 C2.79523438 3.57855469 2.95765625 4.30945313 3.125 5.0625 C3.29257813 5.79597656 3.46015625 6.52945313 3.6328125 7.28515625 C3.75398438 7.85105469 3.87515625 8.41695312 4 9 C3.01 9 2.02 9 1 9 C0.67 6.03 0.34 3.06 0 0 Z " fill="#5CB0E1" transform="translate(75,150)"/>
<path d="M0 0 C3.16115776 1.36983503 3.9927092 1.9890638 6 5 C4.02 5 2.04 5 0 5 C0 3.35 0 1.7 0 0 Z " fill="#7BBFE2" transform="translate(72,48)"/>
<path d="M0 0 C0.66 0.99 1.32 1.98 2 3 C1.34 3 0.68 3 0 3 C-0.33 5.64 -0.66 8.28 -1 11 C-1.66 11 -2.32 11 -3 11 C-2.44894091 7.0507432 -1.61064629 3.65079826 0 0 Z " fill="#6DBBE5" transform="translate(41,44)"/>
<path d="M0 0 C0.66 0.33 1.32 0.66 2 1 C2 1.99 2 2.98 2 4 C2.66 4 3.32 4 4 4 C3.67 4.99 3.34 5.98 3 7 C-0.465 5.02 -0.465 5.02 -4 3 C-2.68 2.67 -1.36 2.34 0 2 C0 1.34 0 0.68 0 0 Z " fill="#60B7E5" transform="translate(116,28)"/>
<path d="M0 0 C2.97 1.98 2.97 1.98 6 4 C5.34 5.32 4.68 6.64 4 8 C0 2.25 0 2.25 0 0 Z " fill="#FBFCFA" transform="translate(103,0)"/>
<path d="M0 0 C6.52307692 0.61538462 6.52307692 0.61538462 8.9375 2.5625 C9.288125 3.036875 9.63875 3.51125 10 4 C3.47692308 3.38461538 3.47692308 3.38461538 1.0625 1.4375 C0.711875 0.963125 0.36125 0.48875 0 0 Z " fill="#4BA8E2" transform="translate(84,167)"/>
<path d="M0 0 C1.65 0 3.3 0 5 0 C4.43628586 3.26954202 3.50037734 4.82575883 1 7 C0.67 4.69 0.34 2.38 0 0 Z " fill="#52AFE7" transform="translate(58,39)"/>
<path d="M0 0 C-0.33 1.65 -0.66 3.3 -1 5 C-2.98 4.34 -4.96 3.68 -7 3 C-2.5 0 -2.5 0 0 0 Z M-5 4 C-3 5 -3 5 -3 5 Z " fill="#309CDD" transform="translate(111,152)"/>
<path d="M0 0 C0.99 0 1.98 0 3 0 C3.66 1.98 4.32 3.96 5 6 C4.01 6 3.02 6 2 6 C1.34 4.02 0.68 2.04 0 0 Z " fill="#7C7C7C" transform="translate(332,134)"/>
<path d="M0 0 C0.66 0 1.32 0 2 0 C2.33 2.97 2.66 5.94 3 9 C0.90250005 6.64031256 0.03094296 5.45383006 -0.1875 2.25 C-0.125625 1.5075 -0.06375 0.765 0 0 Z " fill="#4DABDF" transform="translate(53,91)"/>
<path d="M0 0 C0.99 0.33 1.98 0.66 3 1 C1.66666667 3 0.33333333 5 -1 7 C-1.66 6.67 -2.32 6.34 -3 6 C-1.125 1.125 -1.125 1.125 0 0 Z " fill="#3C3C3C" transform="translate(393,53)"/>
<path d="M0 0 C0 3 0 3 0 3 Z " fill="#FFF8F8" transform="translate(111,4)"/>
</svg>
